<mxfile host="app.diagrams.net" modified="2022-08-06T05:28:14.514Z" agent="5.0 (Macintosh; Intel Mac OS X 10_15_7) AppleWebKit/537.36 (KHTML, like Gecko) Chrome/103.0.0.0 Safari/537.36" etag="zdCqY5tQT83eHJFdw80U" version="20.2.2" type="github" pages="3">
  <diagram id="BJCNtecdDHB6hmKqfSyz" name="reverseKGroup">
    <mxGraphModel dx="4730" dy="2520" grid="1" gridSize="10" guides="1" tooltips="1" connect="1" arrows="1" fold="1" page="1" pageScale="1" pageWidth="827" pageHeight="1169" math="0" shadow="0">
      <root>
        <mxCell id="0" />
        <mxCell id="1" parent="0" />
        <mxCell id="H0zp-v8Q9CIDHG9rSjJf-1" value="1" style="rounded=0;whiteSpace=wrap;html=1;sketch=1;fontFamily=Comic Sans MS;" vertex="1" parent="1">
          <mxGeometry x="320" y="80" width="40" height="40" as="geometry" />
        </mxCell>
        <mxCell id="H0zp-v8Q9CIDHG9rSjJf-2" value="" style="rounded=0;whiteSpace=wrap;html=1;sketch=1;fontFamily=Comic Sans MS;" vertex="1" parent="1">
          <mxGeometry x="320" y="120" width="40" height="40" as="geometry" />
        </mxCell>
        <mxCell id="H0zp-v8Q9CIDHG9rSjJf-3" value="2" style="rounded=0;whiteSpace=wrap;html=1;sketch=1;fontFamily=Comic Sans MS;" vertex="1" parent="1">
          <mxGeometry x="440" y="80" width="40" height="40" as="geometry" />
        </mxCell>
        <mxCell id="H0zp-v8Q9CIDHG9rSjJf-4" value="" style="rounded=0;whiteSpace=wrap;html=1;sketch=1;fontFamily=Comic Sans MS;" vertex="1" parent="1">
          <mxGeometry x="440" y="120" width="40" height="40" as="geometry" />
        </mxCell>
        <mxCell id="H0zp-v8Q9CIDHG9rSjJf-5" value="3" style="rounded=0;whiteSpace=wrap;html=1;sketch=1;fontFamily=Comic Sans MS;" vertex="1" parent="1">
          <mxGeometry x="560" y="80" width="40" height="40" as="geometry" />
        </mxCell>
        <mxCell id="H0zp-v8Q9CIDHG9rSjJf-6" value="" style="rounded=0;whiteSpace=wrap;html=1;sketch=1;fontFamily=Comic Sans MS;" vertex="1" parent="1">
          <mxGeometry x="560" y="120" width="40" height="40" as="geometry" />
        </mxCell>
        <mxCell id="H0zp-v8Q9CIDHG9rSjJf-7" value="4" style="rounded=0;whiteSpace=wrap;html=1;sketch=1;fontFamily=Comic Sans MS;" vertex="1" parent="1">
          <mxGeometry x="680" y="80" width="40" height="40" as="geometry" />
        </mxCell>
        <mxCell id="H0zp-v8Q9CIDHG9rSjJf-8" value="" style="rounded=0;whiteSpace=wrap;html=1;sketch=1;fontFamily=Comic Sans MS;" vertex="1" parent="1">
          <mxGeometry x="680" y="120" width="40" height="40" as="geometry" />
        </mxCell>
        <mxCell id="H0zp-v8Q9CIDHG9rSjJf-9" value="5" style="rounded=0;whiteSpace=wrap;html=1;sketch=1;fontFamily=Comic Sans MS;" vertex="1" parent="1">
          <mxGeometry x="800" y="80" width="40" height="40" as="geometry" />
        </mxCell>
        <mxCell id="H0zp-v8Q9CIDHG9rSjJf-10" value="" style="rounded=0;whiteSpace=wrap;html=1;sketch=1;fontFamily=Comic Sans MS;" vertex="1" parent="1">
          <mxGeometry x="800" y="120" width="40" height="40" as="geometry" />
        </mxCell>
        <mxCell id="H0zp-v8Q9CIDHG9rSjJf-11" value="dummy" style="rounded=0;whiteSpace=wrap;html=1;sketch=1;fontFamily=Comic Sans MS;" vertex="1" parent="1">
          <mxGeometry x="200" y="80" width="40" height="40" as="geometry" />
        </mxCell>
        <mxCell id="H0zp-v8Q9CIDHG9rSjJf-12" value="" style="rounded=0;whiteSpace=wrap;html=1;sketch=1;fontFamily=Comic Sans MS;" vertex="1" parent="1">
          <mxGeometry x="200" y="120" width="40" height="40" as="geometry" />
        </mxCell>
        <mxCell id="H0zp-v8Q9CIDHG9rSjJf-13" value="" style="ellipse;whiteSpace=wrap;html=1;aspect=fixed;sketch=1;fontFamily=Comic Sans MS;" vertex="1" parent="1">
          <mxGeometry x="215" y="135" width="10" height="10" as="geometry" />
        </mxCell>
        <mxCell id="H0zp-v8Q9CIDHG9rSjJf-14" value="" style="endArrow=classic;html=1;rounded=0;sketch=1;fontFamily=Comic Sans MS;exitX=1;exitY=0.5;exitDx=0;exitDy=0;entryX=0;entryY=0.5;entryDx=0;entryDy=0;edgeStyle=elbowEdgeStyle;" edge="1" parent="1" source="H0zp-v8Q9CIDHG9rSjJf-13" target="H0zp-v8Q9CIDHG9rSjJf-1">
          <mxGeometry width="50" height="50" relative="1" as="geometry">
            <mxPoint x="550" y="290" as="sourcePoint" />
            <mxPoint x="600" y="240" as="targetPoint" />
            <Array as="points">
              <mxPoint x="280" y="120" />
            </Array>
          </mxGeometry>
        </mxCell>
        <mxCell id="H0zp-v8Q9CIDHG9rSjJf-15" value="" style="ellipse;whiteSpace=wrap;html=1;aspect=fixed;sketch=1;fontFamily=Comic Sans MS;" vertex="1" parent="1">
          <mxGeometry x="335" y="135" width="10" height="10" as="geometry" />
        </mxCell>
        <mxCell id="H0zp-v8Q9CIDHG9rSjJf-16" value="" style="endArrow=classic;html=1;rounded=0;sketch=1;fontFamily=Comic Sans MS;exitX=1;exitY=0.5;exitDx=0;exitDy=0;entryX=0;entryY=0.5;entryDx=0;entryDy=0;edgeStyle=orthogonalEdgeStyle;" edge="1" parent="1" source="H0zp-v8Q9CIDHG9rSjJf-15" target="H0zp-v8Q9CIDHG9rSjJf-3">
          <mxGeometry width="50" height="50" relative="1" as="geometry">
            <mxPoint x="670" y="290" as="sourcePoint" />
            <mxPoint x="400" y="140" as="targetPoint" />
            <Array as="points">
              <mxPoint x="400" y="140" />
              <mxPoint x="400" y="100" />
            </Array>
          </mxGeometry>
        </mxCell>
        <mxCell id="H0zp-v8Q9CIDHG9rSjJf-17" value="" style="ellipse;whiteSpace=wrap;html=1;aspect=fixed;sketch=1;fontFamily=Comic Sans MS;" vertex="1" parent="1">
          <mxGeometry x="455" y="135" width="10" height="10" as="geometry" />
        </mxCell>
        <mxCell id="H0zp-v8Q9CIDHG9rSjJf-18" value="" style="endArrow=classic;html=1;rounded=0;sketch=1;fontFamily=Comic Sans MS;exitX=1;exitY=0.5;exitDx=0;exitDy=0;entryX=0;entryY=0.5;entryDx=0;entryDy=0;edgeStyle=orthogonalEdgeStyle;" edge="1" parent="1" source="H0zp-v8Q9CIDHG9rSjJf-17" target="H0zp-v8Q9CIDHG9rSjJf-5">
          <mxGeometry width="50" height="50" relative="1" as="geometry">
            <mxPoint x="790" y="290" as="sourcePoint" />
            <mxPoint x="520" y="140" as="targetPoint" />
            <Array as="points">
              <mxPoint x="520" y="140" />
              <mxPoint x="520" y="100" />
            </Array>
          </mxGeometry>
        </mxCell>
        <mxCell id="H0zp-v8Q9CIDHG9rSjJf-19" value="" style="ellipse;whiteSpace=wrap;html=1;aspect=fixed;sketch=1;fontFamily=Comic Sans MS;" vertex="1" parent="1">
          <mxGeometry x="575" y="135" width="10" height="10" as="geometry" />
        </mxCell>
        <mxCell id="H0zp-v8Q9CIDHG9rSjJf-20" value="" style="endArrow=classic;html=1;rounded=0;sketch=1;fontFamily=Comic Sans MS;exitX=1;exitY=0.5;exitDx=0;exitDy=0;entryX=0;entryY=0.5;entryDx=0;entryDy=0;edgeStyle=orthogonalEdgeStyle;" edge="1" parent="1" source="H0zp-v8Q9CIDHG9rSjJf-19" target="H0zp-v8Q9CIDHG9rSjJf-7">
          <mxGeometry width="50" height="50" relative="1" as="geometry">
            <mxPoint x="910" y="290" as="sourcePoint" />
            <mxPoint x="640" y="140" as="targetPoint" />
            <Array as="points">
              <mxPoint x="640" y="140" />
              <mxPoint x="640" y="100" />
            </Array>
          </mxGeometry>
        </mxCell>
        <mxCell id="H0zp-v8Q9CIDHG9rSjJf-21" value="" style="ellipse;whiteSpace=wrap;html=1;aspect=fixed;sketch=1;fontFamily=Comic Sans MS;" vertex="1" parent="1">
          <mxGeometry x="695" y="135" width="10" height="10" as="geometry" />
        </mxCell>
        <mxCell id="H0zp-v8Q9CIDHG9rSjJf-22" value="" style="endArrow=classic;html=1;rounded=0;sketch=1;fontFamily=Comic Sans MS;exitX=1;exitY=0.5;exitDx=0;exitDy=0;entryX=0;entryY=0.5;entryDx=0;entryDy=0;edgeStyle=orthogonalEdgeStyle;" edge="1" parent="1" source="H0zp-v8Q9CIDHG9rSjJf-21" target="H0zp-v8Q9CIDHG9rSjJf-9">
          <mxGeometry width="50" height="50" relative="1" as="geometry">
            <mxPoint x="1030" y="290" as="sourcePoint" />
            <mxPoint x="760" y="140" as="targetPoint" />
            <Array as="points">
              <mxPoint x="760" y="140" />
              <mxPoint x="760" y="100" />
            </Array>
          </mxGeometry>
        </mxCell>
        <mxCell id="H0zp-v8Q9CIDHG9rSjJf-23" value="" style="ellipse;whiteSpace=wrap;html=1;aspect=fixed;sketch=1;fontFamily=Comic Sans MS;" vertex="1" parent="1">
          <mxGeometry x="815" y="135" width="10" height="10" as="geometry" />
        </mxCell>
        <mxCell id="H0zp-v8Q9CIDHG9rSjJf-24" value="&lt;font color=&quot;#ff3333&quot;&gt;prev&lt;/font&gt;" style="rounded=0;whiteSpace=wrap;html=1;sketch=1;fontFamily=Comic Sans MS;strokeColor=#FF3333;verticalAlign=bottom;" vertex="1" parent="1">
          <mxGeometry x="200" y="200" width="40" height="40" as="geometry" />
        </mxCell>
        <mxCell id="H0zp-v8Q9CIDHG9rSjJf-25" value="" style="ellipse;whiteSpace=wrap;html=1;aspect=fixed;sketch=1;fontFamily=Comic Sans MS;strokeColor=#FF3333;" vertex="1" parent="1">
          <mxGeometry x="215" y="215" width="10" height="10" as="geometry" />
        </mxCell>
        <mxCell id="H0zp-v8Q9CIDHG9rSjJf-26" value="" style="endArrow=classic;html=1;rounded=0;sketch=1;fontFamily=Comic Sans MS;fontSize=20;strokeColor=#FF3333;entryX=0.5;entryY=1;entryDx=0;entryDy=0;startArrow=none;" edge="1" parent="1" source="H0zp-v8Q9CIDHG9rSjJf-25" target="H0zp-v8Q9CIDHG9rSjJf-12">
          <mxGeometry width="50" height="50" relative="1" as="geometry">
            <mxPoint x="220" y="220" as="sourcePoint" />
            <mxPoint x="420" y="210" as="targetPoint" />
          </mxGeometry>
        </mxCell>
        <mxCell id="H0zp-v8Q9CIDHG9rSjJf-33" value="&lt;font color=&quot;#ff3333&quot;&gt;curr&lt;/font&gt;" style="rounded=0;whiteSpace=wrap;html=1;sketch=1;fontFamily=Comic Sans MS;strokeColor=#FF3333;verticalAlign=bottom;" vertex="1" parent="1">
          <mxGeometry x="320" y="200" width="40" height="40" as="geometry" />
        </mxCell>
        <mxCell id="H0zp-v8Q9CIDHG9rSjJf-34" value="" style="ellipse;whiteSpace=wrap;html=1;aspect=fixed;sketch=1;fontFamily=Comic Sans MS;strokeColor=#FF3333;" vertex="1" parent="1">
          <mxGeometry x="335" y="215" width="10" height="10" as="geometry" />
        </mxCell>
        <mxCell id="H0zp-v8Q9CIDHG9rSjJf-35" value="" style="endArrow=classic;html=1;rounded=0;sketch=1;fontFamily=Comic Sans MS;fontSize=20;strokeColor=#FF3333;entryX=0.5;entryY=1;entryDx=0;entryDy=0;" edge="1" parent="1" source="H0zp-v8Q9CIDHG9rSjJf-34">
          <mxGeometry width="50" height="50" relative="1" as="geometry">
            <mxPoint x="490" y="260" as="sourcePoint" />
            <mxPoint x="340" y="160" as="targetPoint" />
          </mxGeometry>
        </mxCell>
        <mxCell id="KDSO4K9wxV18beYOf6Om-1" value="1" style="rounded=0;whiteSpace=wrap;html=1;sketch=1;fontFamily=Comic Sans MS;" vertex="1" parent="1">
          <mxGeometry x="320" y="480" width="40" height="40" as="geometry" />
        </mxCell>
        <mxCell id="KDSO4K9wxV18beYOf6Om-2" value="" style="rounded=0;whiteSpace=wrap;html=1;sketch=1;fontFamily=Comic Sans MS;" vertex="1" parent="1">
          <mxGeometry x="320" y="520" width="40" height="40" as="geometry" />
        </mxCell>
        <mxCell id="KDSO4K9wxV18beYOf6Om-3" value="2" style="rounded=0;whiteSpace=wrap;html=1;sketch=1;fontFamily=Comic Sans MS;" vertex="1" parent="1">
          <mxGeometry x="440" y="480" width="40" height="40" as="geometry" />
        </mxCell>
        <mxCell id="KDSO4K9wxV18beYOf6Om-4" value="" style="rounded=0;whiteSpace=wrap;html=1;sketch=1;fontFamily=Comic Sans MS;" vertex="1" parent="1">
          <mxGeometry x="440" y="520" width="40" height="40" as="geometry" />
        </mxCell>
        <mxCell id="KDSO4K9wxV18beYOf6Om-5" value="3" style="rounded=0;whiteSpace=wrap;html=1;sketch=1;fontFamily=Comic Sans MS;" vertex="1" parent="1">
          <mxGeometry x="560" y="480" width="40" height="40" as="geometry" />
        </mxCell>
        <mxCell id="KDSO4K9wxV18beYOf6Om-6" value="" style="rounded=0;whiteSpace=wrap;html=1;sketch=1;fontFamily=Comic Sans MS;" vertex="1" parent="1">
          <mxGeometry x="560" y="520" width="40" height="40" as="geometry" />
        </mxCell>
        <mxCell id="KDSO4K9wxV18beYOf6Om-7" value="4" style="rounded=0;whiteSpace=wrap;html=1;sketch=1;fontFamily=Comic Sans MS;" vertex="1" parent="1">
          <mxGeometry x="680" y="480" width="40" height="40" as="geometry" />
        </mxCell>
        <mxCell id="KDSO4K9wxV18beYOf6Om-8" value="" style="rounded=0;whiteSpace=wrap;html=1;sketch=1;fontFamily=Comic Sans MS;" vertex="1" parent="1">
          <mxGeometry x="680" y="520" width="40" height="40" as="geometry" />
        </mxCell>
        <mxCell id="KDSO4K9wxV18beYOf6Om-9" value="5" style="rounded=0;whiteSpace=wrap;html=1;sketch=1;fontFamily=Comic Sans MS;" vertex="1" parent="1">
          <mxGeometry x="800" y="480" width="40" height="40" as="geometry" />
        </mxCell>
        <mxCell id="KDSO4K9wxV18beYOf6Om-10" value="" style="rounded=0;whiteSpace=wrap;html=1;sketch=1;fontFamily=Comic Sans MS;" vertex="1" parent="1">
          <mxGeometry x="800" y="520" width="40" height="40" as="geometry" />
        </mxCell>
        <mxCell id="KDSO4K9wxV18beYOf6Om-11" value="dummy" style="rounded=0;whiteSpace=wrap;html=1;sketch=1;fontFamily=Comic Sans MS;" vertex="1" parent="1">
          <mxGeometry x="200" y="480" width="40" height="40" as="geometry" />
        </mxCell>
        <mxCell id="KDSO4K9wxV18beYOf6Om-12" value="" style="rounded=0;whiteSpace=wrap;html=1;sketch=1;fontFamily=Comic Sans MS;" vertex="1" parent="1">
          <mxGeometry x="200" y="520" width="40" height="40" as="geometry" />
        </mxCell>
        <mxCell id="KDSO4K9wxV18beYOf6Om-13" value="" style="ellipse;whiteSpace=wrap;html=1;aspect=fixed;sketch=1;fontFamily=Comic Sans MS;" vertex="1" parent="1">
          <mxGeometry x="215" y="535" width="10" height="10" as="geometry" />
        </mxCell>
        <mxCell id="KDSO4K9wxV18beYOf6Om-14" value="" style="endArrow=classic;html=1;rounded=0;sketch=1;fontFamily=Comic Sans MS;exitX=1;exitY=0.5;exitDx=0;exitDy=0;entryX=0;entryY=0.5;entryDx=0;entryDy=0;edgeStyle=elbowEdgeStyle;" edge="1" parent="1" source="KDSO4K9wxV18beYOf6Om-13" target="KDSO4K9wxV18beYOf6Om-1">
          <mxGeometry width="50" height="50" relative="1" as="geometry">
            <mxPoint x="550" y="690" as="sourcePoint" />
            <mxPoint x="600" y="640" as="targetPoint" />
            <Array as="points">
              <mxPoint x="280" y="520" />
            </Array>
          </mxGeometry>
        </mxCell>
        <mxCell id="KDSO4K9wxV18beYOf6Om-15" value="" style="ellipse;whiteSpace=wrap;html=1;aspect=fixed;sketch=1;fontFamily=Comic Sans MS;" vertex="1" parent="1">
          <mxGeometry x="335" y="535" width="10" height="10" as="geometry" />
        </mxCell>
        <mxCell id="KDSO4K9wxV18beYOf6Om-16" value="" style="endArrow=classic;html=1;rounded=0;sketch=1;fontFamily=Comic Sans MS;exitX=1;exitY=0.5;exitDx=0;exitDy=0;entryX=0;entryY=0.5;entryDx=0;entryDy=0;edgeStyle=orthogonalEdgeStyle;" edge="1" parent="1" source="KDSO4K9wxV18beYOf6Om-15" target="KDSO4K9wxV18beYOf6Om-3">
          <mxGeometry width="50" height="50" relative="1" as="geometry">
            <mxPoint x="670" y="690" as="sourcePoint" />
            <mxPoint x="400" y="540" as="targetPoint" />
            <Array as="points">
              <mxPoint x="400" y="540" />
              <mxPoint x="400" y="500" />
            </Array>
          </mxGeometry>
        </mxCell>
        <mxCell id="KDSO4K9wxV18beYOf6Om-17" value="" style="ellipse;whiteSpace=wrap;html=1;aspect=fixed;sketch=1;fontFamily=Comic Sans MS;" vertex="1" parent="1">
          <mxGeometry x="455" y="535" width="10" height="10" as="geometry" />
        </mxCell>
        <mxCell id="KDSO4K9wxV18beYOf6Om-18" value="" style="endArrow=classic;html=1;rounded=0;sketch=1;fontFamily=Comic Sans MS;exitX=1;exitY=0.5;exitDx=0;exitDy=0;entryX=0;entryY=0.5;entryDx=0;entryDy=0;edgeStyle=orthogonalEdgeStyle;" edge="1" parent="1" source="KDSO4K9wxV18beYOf6Om-17" target="KDSO4K9wxV18beYOf6Om-5">
          <mxGeometry width="50" height="50" relative="1" as="geometry">
            <mxPoint x="790" y="690" as="sourcePoint" />
            <mxPoint x="520" y="540" as="targetPoint" />
            <Array as="points">
              <mxPoint x="520" y="540" />
              <mxPoint x="520" y="500" />
            </Array>
          </mxGeometry>
        </mxCell>
        <mxCell id="KDSO4K9wxV18beYOf6Om-19" value="" style="ellipse;whiteSpace=wrap;html=1;aspect=fixed;sketch=1;fontFamily=Comic Sans MS;" vertex="1" parent="1">
          <mxGeometry x="575" y="535" width="10" height="10" as="geometry" />
        </mxCell>
        <mxCell id="KDSO4K9wxV18beYOf6Om-20" value="" style="endArrow=classic;html=1;rounded=0;sketch=1;fontFamily=Comic Sans MS;exitX=1;exitY=0.5;exitDx=0;exitDy=0;entryX=0;entryY=0.5;entryDx=0;entryDy=0;edgeStyle=orthogonalEdgeStyle;" edge="1" parent="1" source="KDSO4K9wxV18beYOf6Om-19" target="KDSO4K9wxV18beYOf6Om-7">
          <mxGeometry width="50" height="50" relative="1" as="geometry">
            <mxPoint x="910" y="690" as="sourcePoint" />
            <mxPoint x="640" y="540" as="targetPoint" />
            <Array as="points">
              <mxPoint x="640" y="540" />
              <mxPoint x="640" y="500" />
            </Array>
          </mxGeometry>
        </mxCell>
        <mxCell id="KDSO4K9wxV18beYOf6Om-21" value="" style="ellipse;whiteSpace=wrap;html=1;aspect=fixed;sketch=1;fontFamily=Comic Sans MS;" vertex="1" parent="1">
          <mxGeometry x="695" y="535" width="10" height="10" as="geometry" />
        </mxCell>
        <mxCell id="KDSO4K9wxV18beYOf6Om-22" value="" style="endArrow=classic;html=1;rounded=0;sketch=1;fontFamily=Comic Sans MS;exitX=1;exitY=0.5;exitDx=0;exitDy=0;entryX=0;entryY=0.5;entryDx=0;entryDy=0;edgeStyle=orthogonalEdgeStyle;" edge="1" parent="1" source="KDSO4K9wxV18beYOf6Om-21" target="KDSO4K9wxV18beYOf6Om-9">
          <mxGeometry width="50" height="50" relative="1" as="geometry">
            <mxPoint x="1030" y="690" as="sourcePoint" />
            <mxPoint x="760" y="540" as="targetPoint" />
            <Array as="points">
              <mxPoint x="760" y="540" />
              <mxPoint x="760" y="500" />
            </Array>
          </mxGeometry>
        </mxCell>
        <mxCell id="KDSO4K9wxV18beYOf6Om-23" value="" style="ellipse;whiteSpace=wrap;html=1;aspect=fixed;sketch=1;fontFamily=Comic Sans MS;" vertex="1" parent="1">
          <mxGeometry x="815" y="535" width="10" height="10" as="geometry" />
        </mxCell>
        <mxCell id="KDSO4K9wxV18beYOf6Om-24" value="&lt;font color=&quot;#ff3333&quot;&gt;prev&lt;/font&gt;" style="rounded=0;whiteSpace=wrap;html=1;sketch=1;fontFamily=Comic Sans MS;strokeColor=#FF3333;verticalAlign=bottom;" vertex="1" parent="1">
          <mxGeometry x="200" y="600" width="40" height="40" as="geometry" />
        </mxCell>
        <mxCell id="KDSO4K9wxV18beYOf6Om-25" value="" style="ellipse;whiteSpace=wrap;html=1;aspect=fixed;sketch=1;fontFamily=Comic Sans MS;strokeColor=#FF3333;" vertex="1" parent="1">
          <mxGeometry x="215" y="615" width="10" height="10" as="geometry" />
        </mxCell>
        <mxCell id="KDSO4K9wxV18beYOf6Om-26" value="" style="endArrow=classic;html=1;rounded=0;sketch=1;fontFamily=Comic Sans MS;fontSize=20;strokeColor=#FF3333;entryX=0.5;entryY=1;entryDx=0;entryDy=0;" edge="1" parent="1" source="KDSO4K9wxV18beYOf6Om-25" target="KDSO4K9wxV18beYOf6Om-12">
          <mxGeometry width="50" height="50" relative="1" as="geometry">
            <mxPoint x="370" y="660" as="sourcePoint" />
            <mxPoint x="420" y="610" as="targetPoint" />
          </mxGeometry>
        </mxCell>
        <mxCell id="KDSO4K9wxV18beYOf6Om-30" value="&lt;font color=&quot;#ff3333&quot;&gt;curr&lt;/font&gt;" style="rounded=0;whiteSpace=wrap;html=1;sketch=1;fontFamily=Comic Sans MS;strokeColor=#FF3333;verticalAlign=bottom;" vertex="1" parent="1">
          <mxGeometry x="680" y="600" width="40" height="40" as="geometry" />
        </mxCell>
        <mxCell id="KDSO4K9wxV18beYOf6Om-31" value="" style="ellipse;whiteSpace=wrap;html=1;aspect=fixed;sketch=1;fontFamily=Comic Sans MS;strokeColor=#FF3333;" vertex="1" parent="1">
          <mxGeometry x="695" y="615" width="10" height="10" as="geometry" />
        </mxCell>
        <mxCell id="KDSO4K9wxV18beYOf6Om-32" value="" style="endArrow=classic;html=1;rounded=0;sketch=1;fontFamily=Comic Sans MS;fontSize=20;strokeColor=#FF3333;entryX=0.5;entryY=1;entryDx=0;entryDy=0;" edge="1" parent="1" source="KDSO4K9wxV18beYOf6Om-31">
          <mxGeometry width="50" height="50" relative="1" as="geometry">
            <mxPoint x="850" y="660" as="sourcePoint" />
            <mxPoint x="700" y="560" as="targetPoint" />
          </mxGeometry>
        </mxCell>
        <mxCell id="EQqJ0hZn_116NgR2CNY0-1" value="&lt;font color=&quot;#000000&quot; style=&quot;font-size: 12px;&quot;&gt;curr = curr-&amp;gt;next&lt;br&gt;until we collect four elements&lt;br&gt;&lt;/font&gt;" style="shape=document;whiteSpace=wrap;html=1;boundedLbl=1;sketch=1;fontFamily=Comic Sans MS;fontSize=20;fontColor=#FF3333;strokeColor=#000000;" vertex="1" parent="1">
          <mxGeometry x="200" y="340" width="200" height="100" as="geometry" />
        </mxCell>
        <mxCell id="EQqJ0hZn_116NgR2CNY0-36" value="6" style="rounded=0;whiteSpace=wrap;html=1;sketch=1;fontFamily=Comic Sans MS;" vertex="1" parent="1">
          <mxGeometry x="920" y="80" width="40" height="40" as="geometry" />
        </mxCell>
        <mxCell id="EQqJ0hZn_116NgR2CNY0-37" value="" style="rounded=0;whiteSpace=wrap;html=1;sketch=1;fontFamily=Comic Sans MS;" vertex="1" parent="1">
          <mxGeometry x="920" y="120" width="40" height="40" as="geometry" />
        </mxCell>
        <mxCell id="EQqJ0hZn_116NgR2CNY0-40" value="" style="ellipse;whiteSpace=wrap;html=1;aspect=fixed;sketch=1;fontFamily=Comic Sans MS;" vertex="1" parent="1">
          <mxGeometry x="935" y="135" width="10" height="10" as="geometry" />
        </mxCell>
        <mxCell id="EQqJ0hZn_116NgR2CNY0-43" value="" style="endArrow=classic;html=1;rounded=0;sketch=1;fontFamily=Comic Sans MS;exitX=1;exitY=0;exitDx=0;exitDy=0;edgeStyle=orthogonalEdgeStyle;entryX=0;entryY=0.5;entryDx=0;entryDy=0;" edge="1" parent="1" source="H0zp-v8Q9CIDHG9rSjJf-23" target="EQqJ0hZn_116NgR2CNY0-36">
          <mxGeometry width="50" height="50" relative="1" as="geometry">
            <mxPoint x="715" y="150" as="sourcePoint" />
            <mxPoint x="900" y="100" as="targetPoint" />
            <Array as="points">
              <mxPoint x="880" y="136" />
              <mxPoint x="880" y="100" />
            </Array>
          </mxGeometry>
        </mxCell>
        <mxCell id="EQqJ0hZn_116NgR2CNY0-44" value="6" style="rounded=0;whiteSpace=wrap;html=1;sketch=1;fontFamily=Comic Sans MS;" vertex="1" parent="1">
          <mxGeometry x="923.46" y="480" width="40" height="40" as="geometry" />
        </mxCell>
        <mxCell id="EQqJ0hZn_116NgR2CNY0-45" value="" style="rounded=0;whiteSpace=wrap;html=1;sketch=1;fontFamily=Comic Sans MS;" vertex="1" parent="1">
          <mxGeometry x="923.46" y="520" width="40" height="40" as="geometry" />
        </mxCell>
        <mxCell id="EQqJ0hZn_116NgR2CNY0-46" value="" style="ellipse;whiteSpace=wrap;html=1;aspect=fixed;sketch=1;fontFamily=Comic Sans MS;" vertex="1" parent="1">
          <mxGeometry x="938.46" y="535" width="10" height="10" as="geometry" />
        </mxCell>
        <mxCell id="EQqJ0hZn_116NgR2CNY0-47" value="" style="endArrow=classic;html=1;rounded=0;sketch=1;fontFamily=Comic Sans MS;exitX=1;exitY=0;exitDx=0;exitDy=0;edgeStyle=orthogonalEdgeStyle;entryX=0;entryY=0.5;entryDx=0;entryDy=0;" edge="1" parent="1" target="EQqJ0hZn_116NgR2CNY0-44">
          <mxGeometry width="50" height="50" relative="1" as="geometry">
            <mxPoint x="826.9955339059334" y="536.4644660940671" as="sourcePoint" />
            <mxPoint x="903.46" y="500" as="targetPoint" />
            <Array as="points">
              <mxPoint x="883.46" y="536" />
              <mxPoint x="883.46" y="500" />
            </Array>
          </mxGeometry>
        </mxCell>
        <mxCell id="EQqJ0hZn_116NgR2CNY0-48" value="4" style="rounded=0;whiteSpace=wrap;html=1;sketch=1;fontFamily=Comic Sans MS;" vertex="1" parent="1">
          <mxGeometry x="316.53999999999996" y="800" width="40" height="40" as="geometry" />
        </mxCell>
        <mxCell id="EQqJ0hZn_116NgR2CNY0-49" value="" style="rounded=0;whiteSpace=wrap;html=1;sketch=1;fontFamily=Comic Sans MS;" vertex="1" parent="1">
          <mxGeometry x="316.53999999999996" y="840" width="40" height="40" as="geometry" />
        </mxCell>
        <mxCell id="EQqJ0hZn_116NgR2CNY0-50" value="3" style="rounded=0;whiteSpace=wrap;html=1;sketch=1;fontFamily=Comic Sans MS;" vertex="1" parent="1">
          <mxGeometry x="436.53999999999996" y="800" width="40" height="40" as="geometry" />
        </mxCell>
        <mxCell id="EQqJ0hZn_116NgR2CNY0-51" value="" style="rounded=0;whiteSpace=wrap;html=1;sketch=1;fontFamily=Comic Sans MS;" vertex="1" parent="1">
          <mxGeometry x="436.53999999999996" y="840" width="40" height="40" as="geometry" />
        </mxCell>
        <mxCell id="EQqJ0hZn_116NgR2CNY0-52" value="2" style="rounded=0;whiteSpace=wrap;html=1;sketch=1;fontFamily=Comic Sans MS;" vertex="1" parent="1">
          <mxGeometry x="556.54" y="800" width="40" height="40" as="geometry" />
        </mxCell>
        <mxCell id="EQqJ0hZn_116NgR2CNY0-53" value="" style="rounded=0;whiteSpace=wrap;html=1;sketch=1;fontFamily=Comic Sans MS;" vertex="1" parent="1">
          <mxGeometry x="556.54" y="840" width="40" height="40" as="geometry" />
        </mxCell>
        <mxCell id="EQqJ0hZn_116NgR2CNY0-54" value="1" style="rounded=0;whiteSpace=wrap;html=1;sketch=1;fontFamily=Comic Sans MS;" vertex="1" parent="1">
          <mxGeometry x="676.54" y="800" width="40" height="40" as="geometry" />
        </mxCell>
        <mxCell id="EQqJ0hZn_116NgR2CNY0-55" value="" style="rounded=0;whiteSpace=wrap;html=1;sketch=1;fontFamily=Comic Sans MS;" vertex="1" parent="1">
          <mxGeometry x="676.54" y="840" width="40" height="40" as="geometry" />
        </mxCell>
        <mxCell id="EQqJ0hZn_116NgR2CNY0-56" value="5" style="rounded=0;whiteSpace=wrap;html=1;sketch=1;fontFamily=Comic Sans MS;" vertex="1" parent="1">
          <mxGeometry x="796.54" y="800" width="40" height="40" as="geometry" />
        </mxCell>
        <mxCell id="EQqJ0hZn_116NgR2CNY0-57" value="" style="rounded=0;whiteSpace=wrap;html=1;sketch=1;fontFamily=Comic Sans MS;" vertex="1" parent="1">
          <mxGeometry x="796.54" y="840" width="40" height="40" as="geometry" />
        </mxCell>
        <mxCell id="EQqJ0hZn_116NgR2CNY0-58" value="dummy" style="rounded=0;whiteSpace=wrap;html=1;sketch=1;fontFamily=Comic Sans MS;" vertex="1" parent="1">
          <mxGeometry x="196.54000000000002" y="800" width="40" height="40" as="geometry" />
        </mxCell>
        <mxCell id="EQqJ0hZn_116NgR2CNY0-59" value="" style="rounded=0;whiteSpace=wrap;html=1;sketch=1;fontFamily=Comic Sans MS;" vertex="1" parent="1">
          <mxGeometry x="196.54000000000002" y="840" width="40" height="40" as="geometry" />
        </mxCell>
        <mxCell id="EQqJ0hZn_116NgR2CNY0-60" value="" style="ellipse;whiteSpace=wrap;html=1;aspect=fixed;sketch=1;fontFamily=Comic Sans MS;" vertex="1" parent="1">
          <mxGeometry x="211.54000000000002" y="855" width="10" height="10" as="geometry" />
        </mxCell>
        <mxCell id="EQqJ0hZn_116NgR2CNY0-61" value="" style="endArrow=classic;html=1;rounded=0;sketch=1;fontFamily=Comic Sans MS;exitX=1;exitY=0.5;exitDx=0;exitDy=0;entryX=0;entryY=0.5;entryDx=0;entryDy=0;edgeStyle=elbowEdgeStyle;" edge="1" parent="1" source="EQqJ0hZn_116NgR2CNY0-60" target="EQqJ0hZn_116NgR2CNY0-48">
          <mxGeometry width="50" height="50" relative="1" as="geometry">
            <mxPoint x="546.54" y="1010" as="sourcePoint" />
            <mxPoint x="596.54" y="960" as="targetPoint" />
            <Array as="points">
              <mxPoint x="276.53999999999996" y="840" />
            </Array>
          </mxGeometry>
        </mxCell>
        <mxCell id="EQqJ0hZn_116NgR2CNY0-62" value="" style="ellipse;whiteSpace=wrap;html=1;aspect=fixed;sketch=1;fontFamily=Comic Sans MS;" vertex="1" parent="1">
          <mxGeometry x="331.53999999999996" y="855" width="10" height="10" as="geometry" />
        </mxCell>
        <mxCell id="EQqJ0hZn_116NgR2CNY0-63" value="" style="endArrow=classic;html=1;rounded=0;sketch=1;fontFamily=Comic Sans MS;exitX=1;exitY=0.5;exitDx=0;exitDy=0;entryX=0;entryY=0.5;entryDx=0;entryDy=0;edgeStyle=orthogonalEdgeStyle;" edge="1" parent="1" source="EQqJ0hZn_116NgR2CNY0-62" target="EQqJ0hZn_116NgR2CNY0-50">
          <mxGeometry width="50" height="50" relative="1" as="geometry">
            <mxPoint x="666.54" y="1010" as="sourcePoint" />
            <mxPoint x="396.53999999999996" y="860" as="targetPoint" />
            <Array as="points">
              <mxPoint x="396.53999999999996" y="860" />
              <mxPoint x="396.53999999999996" y="820" />
            </Array>
          </mxGeometry>
        </mxCell>
        <mxCell id="EQqJ0hZn_116NgR2CNY0-64" value="" style="ellipse;whiteSpace=wrap;html=1;aspect=fixed;sketch=1;fontFamily=Comic Sans MS;" vertex="1" parent="1">
          <mxGeometry x="451.53999999999996" y="855" width="10" height="10" as="geometry" />
        </mxCell>
        <mxCell id="EQqJ0hZn_116NgR2CNY0-65" value="" style="endArrow=classic;html=1;rounded=0;sketch=1;fontFamily=Comic Sans MS;exitX=1;exitY=0.5;exitDx=0;exitDy=0;entryX=0;entryY=0.5;entryDx=0;entryDy=0;edgeStyle=orthogonalEdgeStyle;" edge="1" parent="1" source="EQqJ0hZn_116NgR2CNY0-64" target="EQqJ0hZn_116NgR2CNY0-52">
          <mxGeometry width="50" height="50" relative="1" as="geometry">
            <mxPoint x="786.54" y="1010" as="sourcePoint" />
            <mxPoint x="516.54" y="860" as="targetPoint" />
            <Array as="points">
              <mxPoint x="516.54" y="860" />
              <mxPoint x="516.54" y="820" />
            </Array>
          </mxGeometry>
        </mxCell>
        <mxCell id="EQqJ0hZn_116NgR2CNY0-66" value="" style="ellipse;whiteSpace=wrap;html=1;aspect=fixed;sketch=1;fontFamily=Comic Sans MS;" vertex="1" parent="1">
          <mxGeometry x="571.54" y="855" width="10" height="10" as="geometry" />
        </mxCell>
        <mxCell id="EQqJ0hZn_116NgR2CNY0-67" value="" style="endArrow=classic;html=1;rounded=0;sketch=1;fontFamily=Comic Sans MS;exitX=1;exitY=0.5;exitDx=0;exitDy=0;entryX=0;entryY=0.5;entryDx=0;entryDy=0;edgeStyle=orthogonalEdgeStyle;" edge="1" parent="1" source="EQqJ0hZn_116NgR2CNY0-66" target="EQqJ0hZn_116NgR2CNY0-54">
          <mxGeometry width="50" height="50" relative="1" as="geometry">
            <mxPoint x="906.54" y="1010" as="sourcePoint" />
            <mxPoint x="636.54" y="860" as="targetPoint" />
            <Array as="points">
              <mxPoint x="636.54" y="860" />
              <mxPoint x="636.54" y="820" />
            </Array>
          </mxGeometry>
        </mxCell>
        <mxCell id="EQqJ0hZn_116NgR2CNY0-68" value="" style="ellipse;whiteSpace=wrap;html=1;aspect=fixed;sketch=1;fontFamily=Comic Sans MS;" vertex="1" parent="1">
          <mxGeometry x="691.54" y="855" width="10" height="10" as="geometry" />
        </mxCell>
        <mxCell id="EQqJ0hZn_116NgR2CNY0-69" value="" style="endArrow=classic;html=1;rounded=0;sketch=1;fontFamily=Comic Sans MS;exitX=1;exitY=0.5;exitDx=0;exitDy=0;entryX=0;entryY=0.5;entryDx=0;entryDy=0;edgeStyle=orthogonalEdgeStyle;" edge="1" parent="1" source="EQqJ0hZn_116NgR2CNY0-68" target="EQqJ0hZn_116NgR2CNY0-56">
          <mxGeometry width="50" height="50" relative="1" as="geometry">
            <mxPoint x="1026.54" y="1010" as="sourcePoint" />
            <mxPoint x="756.54" y="860" as="targetPoint" />
            <Array as="points">
              <mxPoint x="756.54" y="860" />
              <mxPoint x="756.54" y="820" />
            </Array>
          </mxGeometry>
        </mxCell>
        <mxCell id="EQqJ0hZn_116NgR2CNY0-70" value="" style="ellipse;whiteSpace=wrap;html=1;aspect=fixed;sketch=1;fontFamily=Comic Sans MS;" vertex="1" parent="1">
          <mxGeometry x="811.54" y="855" width="10" height="10" as="geometry" />
        </mxCell>
        <mxCell id="EQqJ0hZn_116NgR2CNY0-71" value="&lt;font color=&quot;#ff3333&quot;&gt;prev&lt;/font&gt;" style="rounded=0;whiteSpace=wrap;html=1;sketch=1;fontFamily=Comic Sans MS;strokeColor=#FF3333;verticalAlign=bottom;" vertex="1" parent="1">
          <mxGeometry x="620" y="920" width="40" height="40" as="geometry" />
        </mxCell>
        <mxCell id="EQqJ0hZn_116NgR2CNY0-72" value="" style="ellipse;whiteSpace=wrap;html=1;aspect=fixed;sketch=1;fontFamily=Comic Sans MS;strokeColor=#FF3333;" vertex="1" parent="1">
          <mxGeometry x="635" y="935" width="10" height="10" as="geometry" />
        </mxCell>
        <mxCell id="EQqJ0hZn_116NgR2CNY0-73" value="" style="endArrow=classic;html=1;rounded=0;sketch=1;fontFamily=Comic Sans MS;fontSize=20;strokeColor=#FF3333;entryX=0.5;entryY=1;entryDx=0;entryDy=0;edgeStyle=orthogonalEdgeStyle;" edge="1" parent="1" source="EQqJ0hZn_116NgR2CNY0-72" target="EQqJ0hZn_116NgR2CNY0-55">
          <mxGeometry width="50" height="50" relative="1" as="geometry">
            <mxPoint x="790" y="980" as="sourcePoint" />
            <mxPoint x="640" y="880" as="targetPoint" />
            <Array as="points">
              <mxPoint x="640" y="910" />
              <mxPoint x="696" y="910" />
            </Array>
          </mxGeometry>
        </mxCell>
        <mxCell id="EQqJ0hZn_116NgR2CNY0-74" value="&lt;font color=&quot;#ff3333&quot;&gt;curr&lt;/font&gt;" style="rounded=0;whiteSpace=wrap;html=1;sketch=1;fontFamily=Comic Sans MS;strokeColor=#FF3333;verticalAlign=bottom;" vertex="1" parent="1">
          <mxGeometry x="676.54" y="920" width="40" height="40" as="geometry" />
        </mxCell>
        <mxCell id="EQqJ0hZn_116NgR2CNY0-75" value="" style="ellipse;whiteSpace=wrap;html=1;aspect=fixed;sketch=1;fontFamily=Comic Sans MS;strokeColor=#FF3333;" vertex="1" parent="1">
          <mxGeometry x="691.54" y="935" width="10" height="10" as="geometry" />
        </mxCell>
        <mxCell id="EQqJ0hZn_116NgR2CNY0-76" value="" style="endArrow=classic;html=1;rounded=0;sketch=1;fontFamily=Comic Sans MS;fontSize=20;strokeColor=#FF3333;entryX=0.5;entryY=1;entryDx=0;entryDy=0;" edge="1" parent="1" source="EQqJ0hZn_116NgR2CNY0-75">
          <mxGeometry width="50" height="50" relative="1" as="geometry">
            <mxPoint x="846.54" y="980" as="sourcePoint" />
            <mxPoint x="696.54" y="880" as="targetPoint" />
          </mxGeometry>
        </mxCell>
        <mxCell id="EQqJ0hZn_116NgR2CNY0-77" value="6" style="rounded=0;whiteSpace=wrap;html=1;sketch=1;fontFamily=Comic Sans MS;" vertex="1" parent="1">
          <mxGeometry x="920" y="800" width="40" height="40" as="geometry" />
        </mxCell>
        <mxCell id="EQqJ0hZn_116NgR2CNY0-78" value="" style="rounded=0;whiteSpace=wrap;html=1;sketch=1;fontFamily=Comic Sans MS;" vertex="1" parent="1">
          <mxGeometry x="920" y="840" width="40" height="40" as="geometry" />
        </mxCell>
        <mxCell id="EQqJ0hZn_116NgR2CNY0-79" value="" style="ellipse;whiteSpace=wrap;html=1;aspect=fixed;sketch=1;fontFamily=Comic Sans MS;" vertex="1" parent="1">
          <mxGeometry x="935" y="855" width="10" height="10" as="geometry" />
        </mxCell>
        <mxCell id="EQqJ0hZn_116NgR2CNY0-80" value="" style="endArrow=classic;html=1;rounded=0;sketch=1;fontFamily=Comic Sans MS;exitX=1;exitY=0;exitDx=0;exitDy=0;edgeStyle=orthogonalEdgeStyle;entryX=0;entryY=0.5;entryDx=0;entryDy=0;" edge="1" parent="1" target="EQqJ0hZn_116NgR2CNY0-77">
          <mxGeometry width="50" height="50" relative="1" as="geometry">
            <mxPoint x="823.5355339059333" y="856.4644660940671" as="sourcePoint" />
            <mxPoint x="900" y="820" as="targetPoint" />
            <Array as="points">
              <mxPoint x="880" y="856" />
              <mxPoint x="880" y="820" />
            </Array>
          </mxGeometry>
        </mxCell>
        <mxCell id="EQqJ0hZn_116NgR2CNY0-81" value="&lt;font color=&quot;#000000&quot; style=&quot;font-size: 12px;&quot;&gt;prev = ReverseOneGroup(prev, curr-&amp;gt;next)&lt;br&gt;&lt;/font&gt;" style="shape=document;whiteSpace=wrap;html=1;boundedLbl=1;sketch=1;fontFamily=Comic Sans MS;fontSize=20;fontColor=#FF3333;strokeColor=#000000;" vertex="1" parent="1">
          <mxGeometry x="200" y="690" width="200" height="100" as="geometry" />
        </mxCell>
        <mxCell id="Y64jmAnQh0xGawlvFPzg-1" value="4" style="rounded=0;whiteSpace=wrap;html=1;sketch=1;fontFamily=Comic Sans MS;" vertex="1" parent="1">
          <mxGeometry x="319.99999999999994" y="1140" width="40" height="40" as="geometry" />
        </mxCell>
        <mxCell id="Y64jmAnQh0xGawlvFPzg-2" value="" style="rounded=0;whiteSpace=wrap;html=1;sketch=1;fontFamily=Comic Sans MS;" vertex="1" parent="1">
          <mxGeometry x="319.99999999999994" y="1180" width="40" height="40" as="geometry" />
        </mxCell>
        <mxCell id="Y64jmAnQh0xGawlvFPzg-3" value="3" style="rounded=0;whiteSpace=wrap;html=1;sketch=1;fontFamily=Comic Sans MS;" vertex="1" parent="1">
          <mxGeometry x="439.99999999999994" y="1140" width="40" height="40" as="geometry" />
        </mxCell>
        <mxCell id="Y64jmAnQh0xGawlvFPzg-4" value="" style="rounded=0;whiteSpace=wrap;html=1;sketch=1;fontFamily=Comic Sans MS;" vertex="1" parent="1">
          <mxGeometry x="439.99999999999994" y="1180" width="40" height="40" as="geometry" />
        </mxCell>
        <mxCell id="Y64jmAnQh0xGawlvFPzg-5" value="2" style="rounded=0;whiteSpace=wrap;html=1;sketch=1;fontFamily=Comic Sans MS;" vertex="1" parent="1">
          <mxGeometry x="560" y="1140" width="40" height="40" as="geometry" />
        </mxCell>
        <mxCell id="Y64jmAnQh0xGawlvFPzg-6" value="" style="rounded=0;whiteSpace=wrap;html=1;sketch=1;fontFamily=Comic Sans MS;" vertex="1" parent="1">
          <mxGeometry x="560" y="1180" width="40" height="40" as="geometry" />
        </mxCell>
        <mxCell id="Y64jmAnQh0xGawlvFPzg-7" value="1" style="rounded=0;whiteSpace=wrap;html=1;sketch=1;fontFamily=Comic Sans MS;" vertex="1" parent="1">
          <mxGeometry x="680" y="1140" width="40" height="40" as="geometry" />
        </mxCell>
        <mxCell id="Y64jmAnQh0xGawlvFPzg-8" value="" style="rounded=0;whiteSpace=wrap;html=1;sketch=1;fontFamily=Comic Sans MS;" vertex="1" parent="1">
          <mxGeometry x="680" y="1180" width="40" height="40" as="geometry" />
        </mxCell>
        <mxCell id="Y64jmAnQh0xGawlvFPzg-9" value="5" style="rounded=0;whiteSpace=wrap;html=1;sketch=1;fontFamily=Comic Sans MS;" vertex="1" parent="1">
          <mxGeometry x="800" y="1140" width="40" height="40" as="geometry" />
        </mxCell>
        <mxCell id="Y64jmAnQh0xGawlvFPzg-10" value="" style="rounded=0;whiteSpace=wrap;html=1;sketch=1;fontFamily=Comic Sans MS;" vertex="1" parent="1">
          <mxGeometry x="800" y="1180" width="40" height="40" as="geometry" />
        </mxCell>
        <mxCell id="Y64jmAnQh0xGawlvFPzg-11" value="dummy" style="rounded=0;whiteSpace=wrap;html=1;sketch=1;fontFamily=Comic Sans MS;" vertex="1" parent="1">
          <mxGeometry x="200.00000000000003" y="1140" width="40" height="40" as="geometry" />
        </mxCell>
        <mxCell id="Y64jmAnQh0xGawlvFPzg-12" value="" style="rounded=0;whiteSpace=wrap;html=1;sketch=1;fontFamily=Comic Sans MS;" vertex="1" parent="1">
          <mxGeometry x="200.00000000000003" y="1180" width="40" height="40" as="geometry" />
        </mxCell>
        <mxCell id="Y64jmAnQh0xGawlvFPzg-13" value="" style="ellipse;whiteSpace=wrap;html=1;aspect=fixed;sketch=1;fontFamily=Comic Sans MS;" vertex="1" parent="1">
          <mxGeometry x="215.00000000000003" y="1195" width="10" height="10" as="geometry" />
        </mxCell>
        <mxCell id="Y64jmAnQh0xGawlvFPzg-14" value="" style="endArrow=classic;html=1;rounded=0;sketch=1;fontFamily=Comic Sans MS;exitX=1;exitY=0.5;exitDx=0;exitDy=0;entryX=0;entryY=0.5;entryDx=0;entryDy=0;edgeStyle=elbowEdgeStyle;" edge="1" parent="1" source="Y64jmAnQh0xGawlvFPzg-13" target="Y64jmAnQh0xGawlvFPzg-1">
          <mxGeometry width="50" height="50" relative="1" as="geometry">
            <mxPoint x="550" y="1350" as="sourcePoint" />
            <mxPoint x="600" y="1300" as="targetPoint" />
            <Array as="points">
              <mxPoint x="279.99999999999994" y="1180" />
            </Array>
          </mxGeometry>
        </mxCell>
        <mxCell id="Y64jmAnQh0xGawlvFPzg-15" value="" style="ellipse;whiteSpace=wrap;html=1;aspect=fixed;sketch=1;fontFamily=Comic Sans MS;" vertex="1" parent="1">
          <mxGeometry x="334.99999999999994" y="1195" width="10" height="10" as="geometry" />
        </mxCell>
        <mxCell id="Y64jmAnQh0xGawlvFPzg-16" value="" style="endArrow=classic;html=1;rounded=0;sketch=1;fontFamily=Comic Sans MS;exitX=1;exitY=0.5;exitDx=0;exitDy=0;entryX=0;entryY=0.5;entryDx=0;entryDy=0;edgeStyle=orthogonalEdgeStyle;" edge="1" parent="1" source="Y64jmAnQh0xGawlvFPzg-15" target="Y64jmAnQh0xGawlvFPzg-3">
          <mxGeometry width="50" height="50" relative="1" as="geometry">
            <mxPoint x="670" y="1350" as="sourcePoint" />
            <mxPoint x="399.99999999999994" y="1200" as="targetPoint" />
            <Array as="points">
              <mxPoint x="399.99999999999994" y="1200" />
              <mxPoint x="399.99999999999994" y="1160" />
            </Array>
          </mxGeometry>
        </mxCell>
        <mxCell id="Y64jmAnQh0xGawlvFPzg-17" value="" style="ellipse;whiteSpace=wrap;html=1;aspect=fixed;sketch=1;fontFamily=Comic Sans MS;" vertex="1" parent="1">
          <mxGeometry x="454.99999999999994" y="1195" width="10" height="10" as="geometry" />
        </mxCell>
        <mxCell id="Y64jmAnQh0xGawlvFPzg-18" value="" style="endArrow=classic;html=1;rounded=0;sketch=1;fontFamily=Comic Sans MS;exitX=1;exitY=0.5;exitDx=0;exitDy=0;entryX=0;entryY=0.5;entryDx=0;entryDy=0;edgeStyle=orthogonalEdgeStyle;" edge="1" parent="1" source="Y64jmAnQh0xGawlvFPzg-17" target="Y64jmAnQh0xGawlvFPzg-5">
          <mxGeometry width="50" height="50" relative="1" as="geometry">
            <mxPoint x="790" y="1350" as="sourcePoint" />
            <mxPoint x="520" y="1200" as="targetPoint" />
            <Array as="points">
              <mxPoint x="520" y="1200" />
              <mxPoint x="520" y="1160" />
            </Array>
          </mxGeometry>
        </mxCell>
        <mxCell id="Y64jmAnQh0xGawlvFPzg-19" value="" style="ellipse;whiteSpace=wrap;html=1;aspect=fixed;sketch=1;fontFamily=Comic Sans MS;" vertex="1" parent="1">
          <mxGeometry x="575" y="1195" width="10" height="10" as="geometry" />
        </mxCell>
        <mxCell id="Y64jmAnQh0xGawlvFPzg-20" value="" style="endArrow=classic;html=1;rounded=0;sketch=1;fontFamily=Comic Sans MS;exitX=1;exitY=0.5;exitDx=0;exitDy=0;entryX=0;entryY=0.5;entryDx=0;entryDy=0;edgeStyle=orthogonalEdgeStyle;" edge="1" parent="1" source="Y64jmAnQh0xGawlvFPzg-19" target="Y64jmAnQh0xGawlvFPzg-7">
          <mxGeometry width="50" height="50" relative="1" as="geometry">
            <mxPoint x="910" y="1350" as="sourcePoint" />
            <mxPoint x="640" y="1200" as="targetPoint" />
            <Array as="points">
              <mxPoint x="640" y="1200" />
              <mxPoint x="640" y="1160" />
            </Array>
          </mxGeometry>
        </mxCell>
        <mxCell id="Y64jmAnQh0xGawlvFPzg-21" value="" style="ellipse;whiteSpace=wrap;html=1;aspect=fixed;sketch=1;fontFamily=Comic Sans MS;" vertex="1" parent="1">
          <mxGeometry x="695" y="1195" width="10" height="10" as="geometry" />
        </mxCell>
        <mxCell id="Y64jmAnQh0xGawlvFPzg-22" value="" style="endArrow=classic;html=1;rounded=0;sketch=1;fontFamily=Comic Sans MS;exitX=1;exitY=0.5;exitDx=0;exitDy=0;entryX=0;entryY=0.5;entryDx=0;entryDy=0;edgeStyle=orthogonalEdgeStyle;" edge="1" parent="1" source="Y64jmAnQh0xGawlvFPzg-21" target="Y64jmAnQh0xGawlvFPzg-9">
          <mxGeometry width="50" height="50" relative="1" as="geometry">
            <mxPoint x="1030" y="1350" as="sourcePoint" />
            <mxPoint x="760" y="1200" as="targetPoint" />
            <Array as="points">
              <mxPoint x="760" y="1200" />
              <mxPoint x="760" y="1160" />
            </Array>
          </mxGeometry>
        </mxCell>
        <mxCell id="Y64jmAnQh0xGawlvFPzg-23" value="" style="ellipse;whiteSpace=wrap;html=1;aspect=fixed;sketch=1;fontFamily=Comic Sans MS;" vertex="1" parent="1">
          <mxGeometry x="815" y="1195" width="10" height="10" as="geometry" />
        </mxCell>
        <mxCell id="Y64jmAnQh0xGawlvFPzg-24" value="&lt;font color=&quot;#ff3333&quot;&gt;curr&lt;/font&gt;" style="rounded=0;whiteSpace=wrap;html=1;sketch=1;fontFamily=Comic Sans MS;strokeColor=#FF3333;verticalAlign=bottom;" vertex="1" parent="1">
          <mxGeometry x="800.0000000000001" y="1260" width="40" height="40" as="geometry" />
        </mxCell>
        <mxCell id="Y64jmAnQh0xGawlvFPzg-25" value="" style="ellipse;whiteSpace=wrap;html=1;aspect=fixed;sketch=1;fontFamily=Comic Sans MS;strokeColor=#FF3333;" vertex="1" parent="1">
          <mxGeometry x="815.0000000000001" y="1275" width="10" height="10" as="geometry" />
        </mxCell>
        <mxCell id="Y64jmAnQh0xGawlvFPzg-26" value="" style="endArrow=classic;html=1;rounded=0;sketch=1;fontFamily=Comic Sans MS;fontSize=20;strokeColor=#FF3333;" edge="1" parent="1" source="Y64jmAnQh0xGawlvFPzg-25" target="Y64jmAnQh0xGawlvFPzg-10">
          <mxGeometry width="50" height="50" relative="1" as="geometry">
            <mxPoint x="750" y="1270" as="sourcePoint" />
            <mxPoint x="643.46" y="1220" as="targetPoint" />
          </mxGeometry>
        </mxCell>
        <mxCell id="Y64jmAnQh0xGawlvFPzg-27" value="&lt;font color=&quot;#ff3333&quot;&gt;prev&lt;/font&gt;" style="rounded=0;whiteSpace=wrap;html=1;sketch=1;fontFamily=Comic Sans MS;strokeColor=#FF3333;verticalAlign=bottom;" vertex="1" parent="1">
          <mxGeometry x="680" y="1260" width="40" height="40" as="geometry" />
        </mxCell>
        <mxCell id="Y64jmAnQh0xGawlvFPzg-28" value="" style="ellipse;whiteSpace=wrap;html=1;aspect=fixed;sketch=1;fontFamily=Comic Sans MS;strokeColor=#FF3333;" vertex="1" parent="1">
          <mxGeometry x="695" y="1275" width="10" height="10" as="geometry" />
        </mxCell>
        <mxCell id="Y64jmAnQh0xGawlvFPzg-29" value="" style="endArrow=classic;html=1;rounded=0;sketch=1;fontFamily=Comic Sans MS;fontSize=20;strokeColor=#FF3333;entryX=0.5;entryY=1;entryDx=0;entryDy=0;" edge="1" parent="1" source="Y64jmAnQh0xGawlvFPzg-28">
          <mxGeometry width="50" height="50" relative="1" as="geometry">
            <mxPoint x="850" y="1320" as="sourcePoint" />
            <mxPoint x="700" y="1220" as="targetPoint" />
          </mxGeometry>
        </mxCell>
        <mxCell id="Y64jmAnQh0xGawlvFPzg-30" value="6" style="rounded=0;whiteSpace=wrap;html=1;sketch=1;fontFamily=Comic Sans MS;" vertex="1" parent="1">
          <mxGeometry x="923.46" y="1140" width="40" height="40" as="geometry" />
        </mxCell>
        <mxCell id="Y64jmAnQh0xGawlvFPzg-31" value="" style="rounded=0;whiteSpace=wrap;html=1;sketch=1;fontFamily=Comic Sans MS;" vertex="1" parent="1">
          <mxGeometry x="923.46" y="1180" width="40" height="40" as="geometry" />
        </mxCell>
        <mxCell id="Y64jmAnQh0xGawlvFPzg-32" value="" style="ellipse;whiteSpace=wrap;html=1;aspect=fixed;sketch=1;fontFamily=Comic Sans MS;" vertex="1" parent="1">
          <mxGeometry x="938.46" y="1195" width="10" height="10" as="geometry" />
        </mxCell>
        <mxCell id="Y64jmAnQh0xGawlvFPzg-33" value="" style="endArrow=classic;html=1;rounded=0;sketch=1;fontFamily=Comic Sans MS;exitX=1;exitY=0;exitDx=0;exitDy=0;edgeStyle=orthogonalEdgeStyle;entryX=0;entryY=0.5;entryDx=0;entryDy=0;" edge="1" parent="1" target="Y64jmAnQh0xGawlvFPzg-30">
          <mxGeometry width="50" height="50" relative="1" as="geometry">
            <mxPoint x="826.9955339059334" y="1196.4644660940671" as="sourcePoint" />
            <mxPoint x="903.46" y="1160" as="targetPoint" />
            <Array as="points">
              <mxPoint x="883.46" y="1196" />
              <mxPoint x="883.46" y="1160" />
            </Array>
          </mxGeometry>
        </mxCell>
        <mxCell id="Y64jmAnQh0xGawlvFPzg-34" value="&lt;font color=&quot;#000000&quot; style=&quot;font-size: 12px;&quot;&gt;curr = prev-&amp;gt;next&lt;br&gt;&lt;/font&gt;" style="shape=document;whiteSpace=wrap;html=1;boundedLbl=1;sketch=1;fontFamily=Comic Sans MS;fontSize=20;fontColor=#FF3333;strokeColor=#000000;" vertex="1" parent="1">
          <mxGeometry x="203.46" y="1030" width="200" height="100" as="geometry" />
        </mxCell>
      </root>
    </mxGraphModel>
  </diagram>
  <diagram id="KhuRshAMwtJ_WJnCZ7J6" name="ReverseOneGroup">
    <mxGraphModel dx="1479" dy="348" grid="1" gridSize="10" guides="1" tooltips="1" connect="1" arrows="1" fold="1" page="1" pageScale="1" pageWidth="827" pageHeight="1169" math="0" shadow="0">
      <root>
        <mxCell id="0" />
        <mxCell id="1" parent="0" />
        <mxCell id="bztyeyOUZCEO9k7QG0YH-14" value="1" style="rounded=0;whiteSpace=wrap;html=1;sketch=1;fontFamily=Comic Sans MS;" vertex="1" parent="1">
          <mxGeometry x="320" y="80" width="40" height="40" as="geometry" />
        </mxCell>
        <mxCell id="bztyeyOUZCEO9k7QG0YH-15" value="" style="rounded=0;whiteSpace=wrap;html=1;sketch=1;fontFamily=Comic Sans MS;" vertex="1" parent="1">
          <mxGeometry x="320" y="120" width="40" height="40" as="geometry" />
        </mxCell>
        <mxCell id="bztyeyOUZCEO9k7QG0YH-16" value="2" style="rounded=0;whiteSpace=wrap;html=1;sketch=1;fontFamily=Comic Sans MS;" vertex="1" parent="1">
          <mxGeometry x="440" y="80" width="40" height="40" as="geometry" />
        </mxCell>
        <mxCell id="bztyeyOUZCEO9k7QG0YH-17" value="" style="rounded=0;whiteSpace=wrap;html=1;sketch=1;fontFamily=Comic Sans MS;" vertex="1" parent="1">
          <mxGeometry x="440" y="120" width="40" height="40" as="geometry" />
        </mxCell>
        <mxCell id="bztyeyOUZCEO9k7QG0YH-18" value="3" style="rounded=0;whiteSpace=wrap;html=1;sketch=1;fontFamily=Comic Sans MS;" vertex="1" parent="1">
          <mxGeometry x="560" y="80" width="40" height="40" as="geometry" />
        </mxCell>
        <mxCell id="bztyeyOUZCEO9k7QG0YH-19" value="" style="rounded=0;whiteSpace=wrap;html=1;sketch=1;fontFamily=Comic Sans MS;" vertex="1" parent="1">
          <mxGeometry x="560" y="120" width="40" height="40" as="geometry" />
        </mxCell>
        <mxCell id="bztyeyOUZCEO9k7QG0YH-20" value="4" style="rounded=0;whiteSpace=wrap;html=1;sketch=1;fontFamily=Comic Sans MS;" vertex="1" parent="1">
          <mxGeometry x="680" y="80" width="40" height="40" as="geometry" />
        </mxCell>
        <mxCell id="bztyeyOUZCEO9k7QG0YH-21" value="" style="rounded=0;whiteSpace=wrap;html=1;sketch=1;fontFamily=Comic Sans MS;" vertex="1" parent="1">
          <mxGeometry x="680" y="120" width="40" height="40" as="geometry" />
        </mxCell>
        <mxCell id="bztyeyOUZCEO9k7QG0YH-22" value="5" style="rounded=0;whiteSpace=wrap;html=1;sketch=1;fontFamily=Comic Sans MS;" vertex="1" parent="1">
          <mxGeometry x="800" y="80" width="40" height="40" as="geometry" />
        </mxCell>
        <mxCell id="bztyeyOUZCEO9k7QG0YH-23" value="" style="rounded=0;whiteSpace=wrap;html=1;sketch=1;fontFamily=Comic Sans MS;" vertex="1" parent="1">
          <mxGeometry x="800" y="120" width="40" height="40" as="geometry" />
        </mxCell>
        <mxCell id="bztyeyOUZCEO9k7QG0YH-24" value="dummy" style="rounded=0;whiteSpace=wrap;html=1;sketch=1;fontFamily=Comic Sans MS;" vertex="1" parent="1">
          <mxGeometry x="200" y="80" width="40" height="40" as="geometry" />
        </mxCell>
        <mxCell id="bztyeyOUZCEO9k7QG0YH-25" value="" style="rounded=0;whiteSpace=wrap;html=1;sketch=1;fontFamily=Comic Sans MS;" vertex="1" parent="1">
          <mxGeometry x="200" y="120" width="40" height="40" as="geometry" />
        </mxCell>
        <mxCell id="bztyeyOUZCEO9k7QG0YH-26" value="" style="ellipse;whiteSpace=wrap;html=1;aspect=fixed;sketch=1;fontFamily=Comic Sans MS;" vertex="1" parent="1">
          <mxGeometry x="215" y="135" width="10" height="10" as="geometry" />
        </mxCell>
        <mxCell id="bztyeyOUZCEO9k7QG0YH-27" value="" style="endArrow=classic;html=1;rounded=0;sketch=1;fontFamily=Comic Sans MS;exitX=1;exitY=0.5;exitDx=0;exitDy=0;entryX=0;entryY=0.5;entryDx=0;entryDy=0;edgeStyle=elbowEdgeStyle;" edge="1" parent="1" source="bztyeyOUZCEO9k7QG0YH-26" target="bztyeyOUZCEO9k7QG0YH-14">
          <mxGeometry width="50" height="50" relative="1" as="geometry">
            <mxPoint x="550" y="290" as="sourcePoint" />
            <mxPoint x="600" y="240" as="targetPoint" />
            <Array as="points">
              <mxPoint x="280" y="120" />
            </Array>
          </mxGeometry>
        </mxCell>
        <mxCell id="bztyeyOUZCEO9k7QG0YH-32" value="" style="ellipse;whiteSpace=wrap;html=1;aspect=fixed;sketch=1;fontFamily=Comic Sans MS;" vertex="1" parent="1">
          <mxGeometry x="335" y="135" width="10" height="10" as="geometry" />
        </mxCell>
        <mxCell id="bztyeyOUZCEO9k7QG0YH-33" value="" style="endArrow=classic;html=1;rounded=0;sketch=1;fontFamily=Comic Sans MS;exitX=1;exitY=0.5;exitDx=0;exitDy=0;entryX=0;entryY=0.5;entryDx=0;entryDy=0;edgeStyle=orthogonalEdgeStyle;" edge="1" parent="1" source="bztyeyOUZCEO9k7QG0YH-32" target="bztyeyOUZCEO9k7QG0YH-16">
          <mxGeometry width="50" height="50" relative="1" as="geometry">
            <mxPoint x="670" y="290" as="sourcePoint" />
            <mxPoint x="400" y="140" as="targetPoint" />
            <Array as="points">
              <mxPoint x="400" y="140" />
              <mxPoint x="400" y="100" />
            </Array>
          </mxGeometry>
        </mxCell>
        <mxCell id="bztyeyOUZCEO9k7QG0YH-34" value="" style="ellipse;whiteSpace=wrap;html=1;aspect=fixed;sketch=1;fontFamily=Comic Sans MS;" vertex="1" parent="1">
          <mxGeometry x="455" y="135" width="10" height="10" as="geometry" />
        </mxCell>
        <mxCell id="bztyeyOUZCEO9k7QG0YH-35" value="" style="endArrow=classic;html=1;rounded=0;sketch=1;fontFamily=Comic Sans MS;exitX=1;exitY=0.5;exitDx=0;exitDy=0;entryX=0;entryY=0.5;entryDx=0;entryDy=0;edgeStyle=orthogonalEdgeStyle;" edge="1" parent="1" source="bztyeyOUZCEO9k7QG0YH-34" target="bztyeyOUZCEO9k7QG0YH-18">
          <mxGeometry width="50" height="50" relative="1" as="geometry">
            <mxPoint x="790" y="290" as="sourcePoint" />
            <mxPoint x="520" y="140" as="targetPoint" />
            <Array as="points">
              <mxPoint x="520" y="140" />
              <mxPoint x="520" y="100" />
            </Array>
          </mxGeometry>
        </mxCell>
        <mxCell id="bztyeyOUZCEO9k7QG0YH-36" value="" style="ellipse;whiteSpace=wrap;html=1;aspect=fixed;sketch=1;fontFamily=Comic Sans MS;" vertex="1" parent="1">
          <mxGeometry x="575" y="135" width="10" height="10" as="geometry" />
        </mxCell>
        <mxCell id="bztyeyOUZCEO9k7QG0YH-37" value="" style="endArrow=classic;html=1;rounded=0;sketch=1;fontFamily=Comic Sans MS;exitX=1;exitY=0.5;exitDx=0;exitDy=0;entryX=0;entryY=0.5;entryDx=0;entryDy=0;edgeStyle=orthogonalEdgeStyle;" edge="1" parent="1" source="bztyeyOUZCEO9k7QG0YH-36" target="bztyeyOUZCEO9k7QG0YH-20">
          <mxGeometry width="50" height="50" relative="1" as="geometry">
            <mxPoint x="910" y="290" as="sourcePoint" />
            <mxPoint x="640" y="140" as="targetPoint" />
            <Array as="points">
              <mxPoint x="640" y="140" />
              <mxPoint x="640" y="100" />
            </Array>
          </mxGeometry>
        </mxCell>
        <mxCell id="bztyeyOUZCEO9k7QG0YH-38" value="" style="ellipse;whiteSpace=wrap;html=1;aspect=fixed;sketch=1;fontFamily=Comic Sans MS;" vertex="1" parent="1">
          <mxGeometry x="695" y="135" width="10" height="10" as="geometry" />
        </mxCell>
        <mxCell id="bztyeyOUZCEO9k7QG0YH-39" value="" style="endArrow=classic;html=1;rounded=0;sketch=1;fontFamily=Comic Sans MS;exitX=1;exitY=0.5;exitDx=0;exitDy=0;entryX=0;entryY=0.5;entryDx=0;entryDy=0;edgeStyle=orthogonalEdgeStyle;" edge="1" parent="1" source="bztyeyOUZCEO9k7QG0YH-38" target="bztyeyOUZCEO9k7QG0YH-22">
          <mxGeometry width="50" height="50" relative="1" as="geometry">
            <mxPoint x="1030" y="290" as="sourcePoint" />
            <mxPoint x="760" y="140" as="targetPoint" />
            <Array as="points">
              <mxPoint x="760" y="140" />
              <mxPoint x="760" y="100" />
            </Array>
          </mxGeometry>
        </mxCell>
        <mxCell id="bztyeyOUZCEO9k7QG0YH-40" value="" style="ellipse;whiteSpace=wrap;html=1;aspect=fixed;sketch=1;fontFamily=Comic Sans MS;" vertex="1" parent="1">
          <mxGeometry x="815" y="135" width="10" height="10" as="geometry" />
        </mxCell>
        <mxCell id="bztyeyOUZCEO9k7QG0YH-43" value="k=4" style="ellipse;shape=cloud;whiteSpace=wrap;html=1;sketch=1;fontFamily=Comic Sans MS;fillColor=#fff2cc;strokeColor=#d6b656;fontSize=20;" vertex="1" parent="1">
          <mxGeometry x="-60" y="30" width="170" height="120" as="geometry" />
        </mxCell>
        <mxCell id="bztyeyOUZCEO9k7QG0YH-67" value="1" style="rounded=0;whiteSpace=wrap;html=1;sketch=1;fontFamily=Comic Sans MS;" vertex="1" parent="1">
          <mxGeometry x="320" y="280" width="40" height="40" as="geometry" />
        </mxCell>
        <mxCell id="bztyeyOUZCEO9k7QG0YH-68" value="" style="rounded=0;whiteSpace=wrap;html=1;sketch=1;fontFamily=Comic Sans MS;" vertex="1" parent="1">
          <mxGeometry x="320" y="320" width="40" height="40" as="geometry" />
        </mxCell>
        <mxCell id="bztyeyOUZCEO9k7QG0YH-69" value="2" style="rounded=0;whiteSpace=wrap;html=1;sketch=1;fontFamily=Comic Sans MS;" vertex="1" parent="1">
          <mxGeometry x="440" y="280" width="40" height="40" as="geometry" />
        </mxCell>
        <mxCell id="bztyeyOUZCEO9k7QG0YH-70" value="" style="rounded=0;whiteSpace=wrap;html=1;sketch=1;fontFamily=Comic Sans MS;" vertex="1" parent="1">
          <mxGeometry x="440" y="320" width="40" height="40" as="geometry" />
        </mxCell>
        <mxCell id="bztyeyOUZCEO9k7QG0YH-71" value="3" style="rounded=0;whiteSpace=wrap;html=1;sketch=1;fontFamily=Comic Sans MS;" vertex="1" parent="1">
          <mxGeometry x="560" y="280" width="40" height="40" as="geometry" />
        </mxCell>
        <mxCell id="bztyeyOUZCEO9k7QG0YH-72" value="" style="rounded=0;whiteSpace=wrap;html=1;sketch=1;fontFamily=Comic Sans MS;" vertex="1" parent="1">
          <mxGeometry x="560" y="320" width="40" height="40" as="geometry" />
        </mxCell>
        <mxCell id="bztyeyOUZCEO9k7QG0YH-73" value="4" style="rounded=0;whiteSpace=wrap;html=1;sketch=1;fontFamily=Comic Sans MS;" vertex="1" parent="1">
          <mxGeometry x="680" y="280" width="40" height="40" as="geometry" />
        </mxCell>
        <mxCell id="bztyeyOUZCEO9k7QG0YH-74" value="" style="rounded=0;whiteSpace=wrap;html=1;sketch=1;fontFamily=Comic Sans MS;" vertex="1" parent="1">
          <mxGeometry x="680" y="320" width="40" height="40" as="geometry" />
        </mxCell>
        <mxCell id="bztyeyOUZCEO9k7QG0YH-75" value="5" style="rounded=0;whiteSpace=wrap;html=1;sketch=1;fontFamily=Comic Sans MS;" vertex="1" parent="1">
          <mxGeometry x="800" y="280" width="40" height="40" as="geometry" />
        </mxCell>
        <mxCell id="bztyeyOUZCEO9k7QG0YH-76" value="" style="rounded=0;whiteSpace=wrap;html=1;sketch=1;fontFamily=Comic Sans MS;" vertex="1" parent="1">
          <mxGeometry x="800" y="320" width="40" height="40" as="geometry" />
        </mxCell>
        <mxCell id="bztyeyOUZCEO9k7QG0YH-77" value="dummy" style="rounded=0;whiteSpace=wrap;html=1;sketch=1;fontFamily=Comic Sans MS;" vertex="1" parent="1">
          <mxGeometry x="200" y="280" width="40" height="40" as="geometry" />
        </mxCell>
        <mxCell id="bztyeyOUZCEO9k7QG0YH-78" value="" style="rounded=0;whiteSpace=wrap;html=1;sketch=1;fontFamily=Comic Sans MS;" vertex="1" parent="1">
          <mxGeometry x="200" y="320" width="40" height="40" as="geometry" />
        </mxCell>
        <mxCell id="bztyeyOUZCEO9k7QG0YH-79" value="" style="ellipse;whiteSpace=wrap;html=1;aspect=fixed;sketch=1;fontFamily=Comic Sans MS;" vertex="1" parent="1">
          <mxGeometry x="215" y="335" width="10" height="10" as="geometry" />
        </mxCell>
        <mxCell id="bztyeyOUZCEO9k7QG0YH-80" value="" style="endArrow=classic;html=1;rounded=0;sketch=1;fontFamily=Comic Sans MS;exitX=1;exitY=0.5;exitDx=0;exitDy=0;edgeStyle=orthogonalEdgeStyle;entryX=0.5;entryY=0;entryDx=0;entryDy=0;" edge="1" parent="1" source="bztyeyOUZCEO9k7QG0YH-79" target="bztyeyOUZCEO9k7QG0YH-69">
          <mxGeometry width="50" height="50" relative="1" as="geometry">
            <mxPoint x="550" y="490" as="sourcePoint" />
            <mxPoint x="460" y="270" as="targetPoint" />
            <Array as="points">
              <mxPoint x="280" y="340" />
              <mxPoint x="280" y="240" />
              <mxPoint x="460" y="240" />
            </Array>
          </mxGeometry>
        </mxCell>
        <mxCell id="bztyeyOUZCEO9k7QG0YH-81" value="" style="ellipse;whiteSpace=wrap;html=1;aspect=fixed;sketch=1;fontFamily=Comic Sans MS;" vertex="1" parent="1">
          <mxGeometry x="335" y="335" width="10" height="10" as="geometry" />
        </mxCell>
        <mxCell id="bztyeyOUZCEO9k7QG0YH-82" value="" style="endArrow=classic;html=1;rounded=0;sketch=1;fontFamily=Comic Sans MS;exitX=0;exitY=0.5;exitDx=0;exitDy=0;entryX=1;entryY=0.5;entryDx=0;entryDy=0;edgeStyle=orthogonalEdgeStyle;" edge="1" parent="1" source="bztyeyOUZCEO9k7QG0YH-83" target="bztyeyOUZCEO9k7QG0YH-67">
          <mxGeometry width="50" height="50" relative="1" as="geometry">
            <mxPoint x="670" y="490" as="sourcePoint" />
            <mxPoint x="400" y="340" as="targetPoint" />
            <Array as="points">
              <mxPoint x="400" y="340" />
              <mxPoint x="400" y="300" />
            </Array>
          </mxGeometry>
        </mxCell>
        <mxCell id="bztyeyOUZCEO9k7QG0YH-83" value="" style="ellipse;whiteSpace=wrap;html=1;aspect=fixed;sketch=1;fontFamily=Comic Sans MS;" vertex="1" parent="1">
          <mxGeometry x="455" y="335" width="10" height="10" as="geometry" />
        </mxCell>
        <mxCell id="bztyeyOUZCEO9k7QG0YH-84" value="" style="endArrow=classic;html=1;rounded=0;sketch=1;fontFamily=Comic Sans MS;entryX=0.5;entryY=1;entryDx=0;entryDy=0;edgeStyle=orthogonalEdgeStyle;exitX=0.5;exitY=1;exitDx=0;exitDy=0;" edge="1" parent="1" source="bztyeyOUZCEO9k7QG0YH-81" target="bztyeyOUZCEO9k7QG0YH-72">
          <mxGeometry width="50" height="50" relative="1" as="geometry">
            <mxPoint x="330" y="370" as="sourcePoint" />
            <mxPoint x="520" y="340" as="targetPoint" />
            <Array as="points">
              <mxPoint x="340" y="400" />
              <mxPoint x="580" y="400" />
            </Array>
          </mxGeometry>
        </mxCell>
        <mxCell id="bztyeyOUZCEO9k7QG0YH-85" value="" style="ellipse;whiteSpace=wrap;html=1;aspect=fixed;sketch=1;fontFamily=Comic Sans MS;" vertex="1" parent="1">
          <mxGeometry x="575" y="335" width="10" height="10" as="geometry" />
        </mxCell>
        <mxCell id="bztyeyOUZCEO9k7QG0YH-86" value="" style="endArrow=classic;html=1;rounded=0;sketch=1;fontFamily=Comic Sans MS;exitX=1;exitY=0.5;exitDx=0;exitDy=0;entryX=0;entryY=0.5;entryDx=0;entryDy=0;edgeStyle=orthogonalEdgeStyle;" edge="1" parent="1" source="bztyeyOUZCEO9k7QG0YH-85" target="bztyeyOUZCEO9k7QG0YH-73">
          <mxGeometry width="50" height="50" relative="1" as="geometry">
            <mxPoint x="910" y="490" as="sourcePoint" />
            <mxPoint x="640" y="340" as="targetPoint" />
            <Array as="points">
              <mxPoint x="640" y="340" />
              <mxPoint x="640" y="300" />
            </Array>
          </mxGeometry>
        </mxCell>
        <mxCell id="bztyeyOUZCEO9k7QG0YH-87" value="" style="ellipse;whiteSpace=wrap;html=1;aspect=fixed;sketch=1;fontFamily=Comic Sans MS;" vertex="1" parent="1">
          <mxGeometry x="695" y="335" width="10" height="10" as="geometry" />
        </mxCell>
        <mxCell id="bztyeyOUZCEO9k7QG0YH-88" value="" style="endArrow=classic;html=1;rounded=0;sketch=1;fontFamily=Comic Sans MS;exitX=1;exitY=0.5;exitDx=0;exitDy=0;entryX=0;entryY=0.5;entryDx=0;entryDy=0;edgeStyle=orthogonalEdgeStyle;" edge="1" parent="1" source="bztyeyOUZCEO9k7QG0YH-87" target="bztyeyOUZCEO9k7QG0YH-75">
          <mxGeometry width="50" height="50" relative="1" as="geometry">
            <mxPoint x="1030" y="490" as="sourcePoint" />
            <mxPoint x="760" y="340" as="targetPoint" />
            <Array as="points">
              <mxPoint x="760" y="340" />
              <mxPoint x="760" y="300" />
            </Array>
          </mxGeometry>
        </mxCell>
        <mxCell id="bztyeyOUZCEO9k7QG0YH-89" value="" style="ellipse;whiteSpace=wrap;html=1;aspect=fixed;sketch=1;fontFamily=Comic Sans MS;" vertex="1" parent="1">
          <mxGeometry x="815" y="335" width="10" height="10" as="geometry" />
        </mxCell>
        <mxCell id="bztyeyOUZCEO9k7QG0YH-91" value="1" style="rounded=0;whiteSpace=wrap;html=1;sketch=1;fontFamily=Comic Sans MS;" vertex="1" parent="1">
          <mxGeometry x="320" y="560" width="40" height="40" as="geometry" />
        </mxCell>
        <mxCell id="bztyeyOUZCEO9k7QG0YH-92" value="" style="rounded=0;whiteSpace=wrap;html=1;sketch=1;fontFamily=Comic Sans MS;" vertex="1" parent="1">
          <mxGeometry x="320" y="600" width="40" height="40" as="geometry" />
        </mxCell>
        <mxCell id="bztyeyOUZCEO9k7QG0YH-93" value="2" style="rounded=0;whiteSpace=wrap;html=1;sketch=1;fontFamily=Comic Sans MS;" vertex="1" parent="1">
          <mxGeometry x="440" y="560" width="40" height="40" as="geometry" />
        </mxCell>
        <mxCell id="bztyeyOUZCEO9k7QG0YH-94" value="" style="rounded=0;whiteSpace=wrap;html=1;sketch=1;fontFamily=Comic Sans MS;" vertex="1" parent="1">
          <mxGeometry x="440" y="600" width="40" height="40" as="geometry" />
        </mxCell>
        <mxCell id="bztyeyOUZCEO9k7QG0YH-95" value="3" style="rounded=0;whiteSpace=wrap;html=1;sketch=1;fontFamily=Comic Sans MS;" vertex="1" parent="1">
          <mxGeometry x="560" y="560" width="40" height="40" as="geometry" />
        </mxCell>
        <mxCell id="bztyeyOUZCEO9k7QG0YH-96" value="" style="rounded=0;whiteSpace=wrap;html=1;sketch=1;fontFamily=Comic Sans MS;" vertex="1" parent="1">
          <mxGeometry x="560" y="600" width="40" height="40" as="geometry" />
        </mxCell>
        <mxCell id="bztyeyOUZCEO9k7QG0YH-97" value="4" style="rounded=0;whiteSpace=wrap;html=1;sketch=1;fontFamily=Comic Sans MS;" vertex="1" parent="1">
          <mxGeometry x="680" y="560" width="40" height="40" as="geometry" />
        </mxCell>
        <mxCell id="bztyeyOUZCEO9k7QG0YH-98" value="" style="rounded=0;whiteSpace=wrap;html=1;sketch=1;fontFamily=Comic Sans MS;" vertex="1" parent="1">
          <mxGeometry x="680" y="600" width="40" height="40" as="geometry" />
        </mxCell>
        <mxCell id="bztyeyOUZCEO9k7QG0YH-99" value="5" style="rounded=0;whiteSpace=wrap;html=1;sketch=1;fontFamily=Comic Sans MS;" vertex="1" parent="1">
          <mxGeometry x="800" y="560" width="40" height="40" as="geometry" />
        </mxCell>
        <mxCell id="bztyeyOUZCEO9k7QG0YH-100" value="" style="rounded=0;whiteSpace=wrap;html=1;sketch=1;fontFamily=Comic Sans MS;" vertex="1" parent="1">
          <mxGeometry x="800" y="600" width="40" height="40" as="geometry" />
        </mxCell>
        <mxCell id="bztyeyOUZCEO9k7QG0YH-101" value="dummy" style="rounded=0;whiteSpace=wrap;html=1;sketch=1;fontFamily=Comic Sans MS;" vertex="1" parent="1">
          <mxGeometry x="200" y="560" width="40" height="40" as="geometry" />
        </mxCell>
        <mxCell id="bztyeyOUZCEO9k7QG0YH-102" value="" style="rounded=0;whiteSpace=wrap;html=1;sketch=1;fontFamily=Comic Sans MS;" vertex="1" parent="1">
          <mxGeometry x="200" y="600" width="40" height="40" as="geometry" />
        </mxCell>
        <mxCell id="bztyeyOUZCEO9k7QG0YH-103" value="" style="ellipse;whiteSpace=wrap;html=1;aspect=fixed;sketch=1;fontFamily=Comic Sans MS;" vertex="1" parent="1">
          <mxGeometry x="215" y="615" width="10" height="10" as="geometry" />
        </mxCell>
        <mxCell id="bztyeyOUZCEO9k7QG0YH-104" value="" style="endArrow=classic;html=1;rounded=0;sketch=1;fontFamily=Comic Sans MS;exitX=1;exitY=0.5;exitDx=0;exitDy=0;edgeStyle=orthogonalEdgeStyle;entryX=0.5;entryY=0;entryDx=0;entryDy=0;" edge="1" parent="1" source="bztyeyOUZCEO9k7QG0YH-103" target="bztyeyOUZCEO9k7QG0YH-95">
          <mxGeometry width="50" height="50" relative="1" as="geometry">
            <mxPoint x="550" y="770" as="sourcePoint" />
            <mxPoint x="590" y="540" as="targetPoint" />
            <Array as="points">
              <mxPoint x="280" y="620" />
              <mxPoint x="280" y="520" />
              <mxPoint x="580" y="520" />
            </Array>
          </mxGeometry>
        </mxCell>
        <mxCell id="bztyeyOUZCEO9k7QG0YH-105" value="" style="ellipse;whiteSpace=wrap;html=1;aspect=fixed;sketch=1;fontFamily=Comic Sans MS;" vertex="1" parent="1">
          <mxGeometry x="335" y="615" width="10" height="10" as="geometry" />
        </mxCell>
        <mxCell id="bztyeyOUZCEO9k7QG0YH-106" value="" style="endArrow=classic;html=1;rounded=0;sketch=1;fontFamily=Comic Sans MS;exitX=0;exitY=0;exitDx=0;exitDy=0;entryX=1;entryY=0.5;entryDx=0;entryDy=0;edgeStyle=orthogonalEdgeStyle;" edge="1" parent="1" source="bztyeyOUZCEO9k7QG0YH-107" target="bztyeyOUZCEO9k7QG0YH-91">
          <mxGeometry width="50" height="50" relative="1" as="geometry">
            <mxPoint x="670" y="770" as="sourcePoint" />
            <mxPoint x="400" y="620" as="targetPoint" />
            <Array as="points">
              <mxPoint x="457" y="620" />
              <mxPoint x="400" y="620" />
              <mxPoint x="400" y="580" />
            </Array>
          </mxGeometry>
        </mxCell>
        <mxCell id="bztyeyOUZCEO9k7QG0YH-107" value="" style="ellipse;whiteSpace=wrap;html=1;aspect=fixed;sketch=1;fontFamily=Comic Sans MS;" vertex="1" parent="1">
          <mxGeometry x="455" y="615" width="10" height="10" as="geometry" />
        </mxCell>
        <mxCell id="bztyeyOUZCEO9k7QG0YH-108" value="" style="endArrow=classic;html=1;rounded=0;sketch=1;fontFamily=Comic Sans MS;entryX=0.5;entryY=1;entryDx=0;entryDy=0;edgeStyle=orthogonalEdgeStyle;exitX=0.5;exitY=1;exitDx=0;exitDy=0;" edge="1" parent="1" source="bztyeyOUZCEO9k7QG0YH-105" target="bztyeyOUZCEO9k7QG0YH-98">
          <mxGeometry width="50" height="50" relative="1" as="geometry">
            <mxPoint x="340" y="650" as="sourcePoint" />
            <mxPoint x="520" y="620" as="targetPoint" />
            <Array as="points">
              <mxPoint x="340" y="680" />
              <mxPoint x="700" y="680" />
            </Array>
          </mxGeometry>
        </mxCell>
        <mxCell id="bztyeyOUZCEO9k7QG0YH-109" value="" style="ellipse;whiteSpace=wrap;html=1;aspect=fixed;sketch=1;fontFamily=Comic Sans MS;" vertex="1" parent="1">
          <mxGeometry x="575" y="615" width="10" height="10" as="geometry" />
        </mxCell>
        <mxCell id="bztyeyOUZCEO9k7QG0YH-110" value="" style="endArrow=classic;html=1;rounded=0;sketch=1;fontFamily=Comic Sans MS;edgeStyle=orthogonalEdgeStyle;exitX=0;exitY=0.5;exitDx=0;exitDy=0;" edge="1" parent="1" source="bztyeyOUZCEO9k7QG0YH-109" target="bztyeyOUZCEO9k7QG0YH-93">
          <mxGeometry width="50" height="50" relative="1" as="geometry">
            <mxPoint x="550" y="620" as="sourcePoint" />
            <mxPoint x="640" y="620" as="targetPoint" />
            <Array as="points">
              <mxPoint x="520" y="620" />
              <mxPoint x="520" y="580" />
            </Array>
          </mxGeometry>
        </mxCell>
        <mxCell id="bztyeyOUZCEO9k7QG0YH-111" value="" style="ellipse;whiteSpace=wrap;html=1;aspect=fixed;sketch=1;fontFamily=Comic Sans MS;" vertex="1" parent="1">
          <mxGeometry x="695" y="615" width="10" height="10" as="geometry" />
        </mxCell>
        <mxCell id="bztyeyOUZCEO9k7QG0YH-112" value="" style="endArrow=classic;html=1;rounded=0;sketch=1;fontFamily=Comic Sans MS;exitX=1;exitY=0.5;exitDx=0;exitDy=0;entryX=0;entryY=0.5;entryDx=0;entryDy=0;edgeStyle=orthogonalEdgeStyle;" edge="1" parent="1" source="bztyeyOUZCEO9k7QG0YH-111" target="bztyeyOUZCEO9k7QG0YH-99">
          <mxGeometry width="50" height="50" relative="1" as="geometry">
            <mxPoint x="1030" y="770" as="sourcePoint" />
            <mxPoint x="760" y="620" as="targetPoint" />
            <Array as="points">
              <mxPoint x="760" y="620" />
              <mxPoint x="760" y="580" />
            </Array>
          </mxGeometry>
        </mxCell>
        <mxCell id="bztyeyOUZCEO9k7QG0YH-113" value="" style="ellipse;whiteSpace=wrap;html=1;aspect=fixed;sketch=1;fontFamily=Comic Sans MS;" vertex="1" parent="1">
          <mxGeometry x="815" y="615" width="10" height="10" as="geometry" />
        </mxCell>
        <mxCell id="bztyeyOUZCEO9k7QG0YH-114" value="1" style="rounded=0;whiteSpace=wrap;html=1;sketch=1;fontFamily=Comic Sans MS;" vertex="1" parent="1">
          <mxGeometry x="320" y="799.92" width="40" height="40" as="geometry" />
        </mxCell>
        <mxCell id="bztyeyOUZCEO9k7QG0YH-115" value="" style="rounded=0;whiteSpace=wrap;html=1;sketch=1;fontFamily=Comic Sans MS;" vertex="1" parent="1">
          <mxGeometry x="320" y="839.92" width="40" height="40" as="geometry" />
        </mxCell>
        <mxCell id="bztyeyOUZCEO9k7QG0YH-116" value="2" style="rounded=0;whiteSpace=wrap;html=1;sketch=1;fontFamily=Comic Sans MS;" vertex="1" parent="1">
          <mxGeometry x="440" y="799.92" width="40" height="40" as="geometry" />
        </mxCell>
        <mxCell id="bztyeyOUZCEO9k7QG0YH-117" value="" style="rounded=0;whiteSpace=wrap;html=1;sketch=1;fontFamily=Comic Sans MS;" vertex="1" parent="1">
          <mxGeometry x="440" y="839.92" width="40" height="40" as="geometry" />
        </mxCell>
        <mxCell id="bztyeyOUZCEO9k7QG0YH-118" value="3" style="rounded=0;whiteSpace=wrap;html=1;sketch=1;fontFamily=Comic Sans MS;" vertex="1" parent="1">
          <mxGeometry x="560" y="799.92" width="40" height="40" as="geometry" />
        </mxCell>
        <mxCell id="bztyeyOUZCEO9k7QG0YH-119" value="" style="rounded=0;whiteSpace=wrap;html=1;sketch=1;fontFamily=Comic Sans MS;" vertex="1" parent="1">
          <mxGeometry x="560" y="839.92" width="40" height="40" as="geometry" />
        </mxCell>
        <mxCell id="bztyeyOUZCEO9k7QG0YH-120" value="4" style="rounded=0;whiteSpace=wrap;html=1;sketch=1;fontFamily=Comic Sans MS;" vertex="1" parent="1">
          <mxGeometry x="680" y="799.92" width="40" height="40" as="geometry" />
        </mxCell>
        <mxCell id="bztyeyOUZCEO9k7QG0YH-121" value="" style="rounded=0;whiteSpace=wrap;html=1;sketch=1;fontFamily=Comic Sans MS;" vertex="1" parent="1">
          <mxGeometry x="680" y="839.92" width="40" height="40" as="geometry" />
        </mxCell>
        <mxCell id="bztyeyOUZCEO9k7QG0YH-122" value="5" style="rounded=0;whiteSpace=wrap;html=1;sketch=1;fontFamily=Comic Sans MS;" vertex="1" parent="1">
          <mxGeometry x="800" y="799.92" width="40" height="40" as="geometry" />
        </mxCell>
        <mxCell id="bztyeyOUZCEO9k7QG0YH-123" value="" style="rounded=0;whiteSpace=wrap;html=1;sketch=1;fontFamily=Comic Sans MS;" vertex="1" parent="1">
          <mxGeometry x="800" y="839.92" width="40" height="40" as="geometry" />
        </mxCell>
        <mxCell id="bztyeyOUZCEO9k7QG0YH-124" value="dummy" style="rounded=0;whiteSpace=wrap;html=1;sketch=1;fontFamily=Comic Sans MS;" vertex="1" parent="1">
          <mxGeometry x="200" y="799.92" width="40" height="40" as="geometry" />
        </mxCell>
        <mxCell id="bztyeyOUZCEO9k7QG0YH-125" value="" style="rounded=0;whiteSpace=wrap;html=1;sketch=1;fontFamily=Comic Sans MS;" vertex="1" parent="1">
          <mxGeometry x="200" y="839.92" width="40" height="40" as="geometry" />
        </mxCell>
        <mxCell id="bztyeyOUZCEO9k7QG0YH-126" value="" style="ellipse;whiteSpace=wrap;html=1;aspect=fixed;sketch=1;fontFamily=Comic Sans MS;" vertex="1" parent="1">
          <mxGeometry x="215" y="854.92" width="10" height="10" as="geometry" />
        </mxCell>
        <mxCell id="bztyeyOUZCEO9k7QG0YH-127" value="" style="endArrow=classic;html=1;rounded=0;sketch=1;fontFamily=Comic Sans MS;exitX=1;exitY=0.5;exitDx=0;exitDy=0;edgeStyle=orthogonalEdgeStyle;entryX=0.5;entryY=0;entryDx=0;entryDy=0;" edge="1" parent="1" source="bztyeyOUZCEO9k7QG0YH-126" target="bztyeyOUZCEO9k7QG0YH-120">
          <mxGeometry width="50" height="50" relative="1" as="geometry">
            <mxPoint x="550" y="1009.92" as="sourcePoint" />
            <mxPoint x="590" y="779.92" as="targetPoint" />
            <Array as="points">
              <mxPoint x="280" y="860" />
              <mxPoint x="280" y="760" />
              <mxPoint x="700" y="760" />
            </Array>
          </mxGeometry>
        </mxCell>
        <mxCell id="bztyeyOUZCEO9k7QG0YH-128" value="" style="ellipse;whiteSpace=wrap;html=1;aspect=fixed;sketch=1;fontFamily=Comic Sans MS;" vertex="1" parent="1">
          <mxGeometry x="335" y="854.92" width="10" height="10" as="geometry" />
        </mxCell>
        <mxCell id="bztyeyOUZCEO9k7QG0YH-129" value="" style="endArrow=classic;html=1;rounded=0;sketch=1;fontFamily=Comic Sans MS;exitX=0;exitY=0;exitDx=0;exitDy=0;entryX=1;entryY=0.5;entryDx=0;entryDy=0;edgeStyle=orthogonalEdgeStyle;" edge="1" parent="1" source="bztyeyOUZCEO9k7QG0YH-130" target="bztyeyOUZCEO9k7QG0YH-114">
          <mxGeometry width="50" height="50" relative="1" as="geometry">
            <mxPoint x="670" y="1009.92" as="sourcePoint" />
            <mxPoint x="400" y="859.92" as="targetPoint" />
            <Array as="points">
              <mxPoint x="457" y="859.92" />
              <mxPoint x="400" y="859.92" />
              <mxPoint x="400" y="819.92" />
            </Array>
          </mxGeometry>
        </mxCell>
        <mxCell id="bztyeyOUZCEO9k7QG0YH-130" value="" style="ellipse;whiteSpace=wrap;html=1;aspect=fixed;sketch=1;fontFamily=Comic Sans MS;" vertex="1" parent="1">
          <mxGeometry x="455" y="854.92" width="10" height="10" as="geometry" />
        </mxCell>
        <mxCell id="bztyeyOUZCEO9k7QG0YH-131" value="" style="endArrow=classic;html=1;rounded=0;sketch=1;fontFamily=Comic Sans MS;entryX=0.5;entryY=1;entryDx=0;entryDy=0;edgeStyle=orthogonalEdgeStyle;exitX=0;exitY=1;exitDx=0;exitDy=0;" edge="1" parent="1" source="bztyeyOUZCEO9k7QG0YH-128" target="bztyeyOUZCEO9k7QG0YH-123">
          <mxGeometry width="50" height="50" relative="1" as="geometry">
            <mxPoint x="340" y="870" as="sourcePoint" />
            <mxPoint x="520" y="859.92" as="targetPoint" />
            <Array as="points">
              <mxPoint x="340" y="864" />
              <mxPoint x="340" y="920" />
              <mxPoint x="820" y="920" />
            </Array>
          </mxGeometry>
        </mxCell>
        <mxCell id="bztyeyOUZCEO9k7QG0YH-132" value="" style="ellipse;whiteSpace=wrap;html=1;aspect=fixed;sketch=1;fontFamily=Comic Sans MS;" vertex="1" parent="1">
          <mxGeometry x="575" y="854.92" width="10" height="10" as="geometry" />
        </mxCell>
        <mxCell id="bztyeyOUZCEO9k7QG0YH-133" value="" style="endArrow=classic;html=1;rounded=0;sketch=1;fontFamily=Comic Sans MS;edgeStyle=orthogonalEdgeStyle;exitX=0;exitY=0.5;exitDx=0;exitDy=0;" edge="1" parent="1" source="bztyeyOUZCEO9k7QG0YH-132" target="bztyeyOUZCEO9k7QG0YH-116">
          <mxGeometry width="50" height="50" relative="1" as="geometry">
            <mxPoint x="550" y="859.92" as="sourcePoint" />
            <mxPoint x="640" y="859.92" as="targetPoint" />
            <Array as="points">
              <mxPoint x="520" y="859.92" />
              <mxPoint x="520" y="819.92" />
            </Array>
          </mxGeometry>
        </mxCell>
        <mxCell id="bztyeyOUZCEO9k7QG0YH-134" value="" style="ellipse;whiteSpace=wrap;html=1;aspect=fixed;sketch=1;fontFamily=Comic Sans MS;" vertex="1" parent="1">
          <mxGeometry x="695" y="854.92" width="10" height="10" as="geometry" />
        </mxCell>
        <mxCell id="bztyeyOUZCEO9k7QG0YH-135" value="" style="endArrow=classic;html=1;rounded=0;sketch=1;fontFamily=Comic Sans MS;entryX=1;entryY=0.5;entryDx=0;entryDy=0;edgeStyle=orthogonalEdgeStyle;" edge="1" parent="1" source="bztyeyOUZCEO9k7QG0YH-134" target="bztyeyOUZCEO9k7QG0YH-118">
          <mxGeometry width="50" height="50" relative="1" as="geometry">
            <mxPoint x="650" y="880" as="sourcePoint" />
            <mxPoint x="760" y="859.92" as="targetPoint" />
            <Array as="points">
              <mxPoint x="640" y="860" />
              <mxPoint x="640" y="820" />
            </Array>
          </mxGeometry>
        </mxCell>
        <mxCell id="bztyeyOUZCEO9k7QG0YH-136" value="" style="ellipse;whiteSpace=wrap;html=1;aspect=fixed;sketch=1;fontFamily=Comic Sans MS;" vertex="1" parent="1">
          <mxGeometry x="815" y="854.92" width="10" height="10" as="geometry" />
        </mxCell>
      </root>
    </mxGraphModel>
  </diagram>
  <diagram id="YKay49AhaeVcnxUDAmp1" name="ReverseOneGroup (coding)">
    <mxGraphModel dx="2404" dy="840" grid="1" gridSize="10" guides="1" tooltips="1" connect="1" arrows="1" fold="1" page="1" pageScale="1" pageWidth="827" pageHeight="1169" math="0" shadow="0">
      <root>
        <mxCell id="0" />
        <mxCell id="1" parent="0" />
        <mxCell id="3rSdv7cUPAvAJedNGD7d-1" value="1" style="rounded=0;whiteSpace=wrap;html=1;sketch=1;fontFamily=Comic Sans MS;" vertex="1" parent="1">
          <mxGeometry x="320" y="80" width="40" height="40" as="geometry" />
        </mxCell>
        <mxCell id="3rSdv7cUPAvAJedNGD7d-2" value="" style="rounded=0;whiteSpace=wrap;html=1;sketch=1;fontFamily=Comic Sans MS;" vertex="1" parent="1">
          <mxGeometry x="320" y="120" width="40" height="40" as="geometry" />
        </mxCell>
        <mxCell id="3rSdv7cUPAvAJedNGD7d-3" value="2" style="rounded=0;whiteSpace=wrap;html=1;sketch=1;fontFamily=Comic Sans MS;" vertex="1" parent="1">
          <mxGeometry x="440" y="80" width="40" height="40" as="geometry" />
        </mxCell>
        <mxCell id="3rSdv7cUPAvAJedNGD7d-4" value="" style="rounded=0;whiteSpace=wrap;html=1;sketch=1;fontFamily=Comic Sans MS;" vertex="1" parent="1">
          <mxGeometry x="440" y="120" width="40" height="40" as="geometry" />
        </mxCell>
        <mxCell id="3rSdv7cUPAvAJedNGD7d-5" value="3" style="rounded=0;whiteSpace=wrap;html=1;sketch=1;fontFamily=Comic Sans MS;" vertex="1" parent="1">
          <mxGeometry x="560" y="80" width="40" height="40" as="geometry" />
        </mxCell>
        <mxCell id="3rSdv7cUPAvAJedNGD7d-6" value="" style="rounded=0;whiteSpace=wrap;html=1;sketch=1;fontFamily=Comic Sans MS;" vertex="1" parent="1">
          <mxGeometry x="560" y="120" width="40" height="40" as="geometry" />
        </mxCell>
        <mxCell id="3rSdv7cUPAvAJedNGD7d-7" value="4" style="rounded=0;whiteSpace=wrap;html=1;sketch=1;fontFamily=Comic Sans MS;" vertex="1" parent="1">
          <mxGeometry x="680" y="80" width="40" height="40" as="geometry" />
        </mxCell>
        <mxCell id="3rSdv7cUPAvAJedNGD7d-8" value="" style="rounded=0;whiteSpace=wrap;html=1;sketch=1;fontFamily=Comic Sans MS;" vertex="1" parent="1">
          <mxGeometry x="680" y="120" width="40" height="40" as="geometry" />
        </mxCell>
        <mxCell id="3rSdv7cUPAvAJedNGD7d-9" value="5" style="rounded=0;whiteSpace=wrap;html=1;sketch=1;fontFamily=Comic Sans MS;" vertex="1" parent="1">
          <mxGeometry x="800" y="80" width="40" height="40" as="geometry" />
        </mxCell>
        <mxCell id="3rSdv7cUPAvAJedNGD7d-10" value="" style="rounded=0;whiteSpace=wrap;html=1;sketch=1;fontFamily=Comic Sans MS;" vertex="1" parent="1">
          <mxGeometry x="800" y="120" width="40" height="40" as="geometry" />
        </mxCell>
        <mxCell id="3rSdv7cUPAvAJedNGD7d-11" value="dummy" style="rounded=0;whiteSpace=wrap;html=1;sketch=1;fontFamily=Comic Sans MS;" vertex="1" parent="1">
          <mxGeometry x="200" y="80" width="40" height="40" as="geometry" />
        </mxCell>
        <mxCell id="3rSdv7cUPAvAJedNGD7d-12" value="" style="rounded=0;whiteSpace=wrap;html=1;sketch=1;fontFamily=Comic Sans MS;" vertex="1" parent="1">
          <mxGeometry x="200" y="120" width="40" height="40" as="geometry" />
        </mxCell>
        <mxCell id="3rSdv7cUPAvAJedNGD7d-13" value="" style="ellipse;whiteSpace=wrap;html=1;aspect=fixed;sketch=1;fontFamily=Comic Sans MS;" vertex="1" parent="1">
          <mxGeometry x="215" y="135" width="10" height="10" as="geometry" />
        </mxCell>
        <mxCell id="3rSdv7cUPAvAJedNGD7d-14" value="" style="endArrow=classic;html=1;rounded=0;sketch=1;fontFamily=Comic Sans MS;exitX=1;exitY=0.5;exitDx=0;exitDy=0;entryX=0;entryY=0.5;entryDx=0;entryDy=0;edgeStyle=elbowEdgeStyle;" edge="1" parent="1" source="3rSdv7cUPAvAJedNGD7d-13" target="3rSdv7cUPAvAJedNGD7d-1">
          <mxGeometry width="50" height="50" relative="1" as="geometry">
            <mxPoint x="550" y="290" as="sourcePoint" />
            <mxPoint x="600" y="240" as="targetPoint" />
            <Array as="points">
              <mxPoint x="280" y="120" />
            </Array>
          </mxGeometry>
        </mxCell>
        <mxCell id="3rSdv7cUPAvAJedNGD7d-15" value="" style="ellipse;whiteSpace=wrap;html=1;aspect=fixed;sketch=1;fontFamily=Comic Sans MS;" vertex="1" parent="1">
          <mxGeometry x="335" y="135" width="10" height="10" as="geometry" />
        </mxCell>
        <mxCell id="3rSdv7cUPAvAJedNGD7d-16" value="" style="endArrow=classic;html=1;rounded=0;sketch=1;fontFamily=Comic Sans MS;exitX=1;exitY=0.5;exitDx=0;exitDy=0;entryX=0;entryY=0.5;entryDx=0;entryDy=0;edgeStyle=orthogonalEdgeStyle;" edge="1" parent="1" source="3rSdv7cUPAvAJedNGD7d-15" target="3rSdv7cUPAvAJedNGD7d-3">
          <mxGeometry width="50" height="50" relative="1" as="geometry">
            <mxPoint x="670" y="290" as="sourcePoint" />
            <mxPoint x="400" y="140" as="targetPoint" />
            <Array as="points">
              <mxPoint x="400" y="140" />
              <mxPoint x="400" y="100" />
            </Array>
          </mxGeometry>
        </mxCell>
        <mxCell id="3rSdv7cUPAvAJedNGD7d-17" value="" style="ellipse;whiteSpace=wrap;html=1;aspect=fixed;sketch=1;fontFamily=Comic Sans MS;" vertex="1" parent="1">
          <mxGeometry x="455" y="135" width="10" height="10" as="geometry" />
        </mxCell>
        <mxCell id="3rSdv7cUPAvAJedNGD7d-18" value="" style="endArrow=classic;html=1;rounded=0;sketch=1;fontFamily=Comic Sans MS;exitX=1;exitY=0.5;exitDx=0;exitDy=0;entryX=0;entryY=0.5;entryDx=0;entryDy=0;edgeStyle=orthogonalEdgeStyle;" edge="1" parent="1" source="3rSdv7cUPAvAJedNGD7d-17" target="3rSdv7cUPAvAJedNGD7d-5">
          <mxGeometry width="50" height="50" relative="1" as="geometry">
            <mxPoint x="790" y="290" as="sourcePoint" />
            <mxPoint x="520" y="140" as="targetPoint" />
            <Array as="points">
              <mxPoint x="520" y="140" />
              <mxPoint x="520" y="100" />
            </Array>
          </mxGeometry>
        </mxCell>
        <mxCell id="3rSdv7cUPAvAJedNGD7d-19" value="" style="ellipse;whiteSpace=wrap;html=1;aspect=fixed;sketch=1;fontFamily=Comic Sans MS;" vertex="1" parent="1">
          <mxGeometry x="575" y="135" width="10" height="10" as="geometry" />
        </mxCell>
        <mxCell id="3rSdv7cUPAvAJedNGD7d-20" value="" style="endArrow=classic;html=1;rounded=0;sketch=1;fontFamily=Comic Sans MS;exitX=1;exitY=0.5;exitDx=0;exitDy=0;entryX=0;entryY=0.5;entryDx=0;entryDy=0;edgeStyle=orthogonalEdgeStyle;" edge="1" parent="1" source="3rSdv7cUPAvAJedNGD7d-19" target="3rSdv7cUPAvAJedNGD7d-7">
          <mxGeometry width="50" height="50" relative="1" as="geometry">
            <mxPoint x="910" y="290" as="sourcePoint" />
            <mxPoint x="640" y="140" as="targetPoint" />
            <Array as="points">
              <mxPoint x="640" y="140" />
              <mxPoint x="640" y="100" />
            </Array>
          </mxGeometry>
        </mxCell>
        <mxCell id="3rSdv7cUPAvAJedNGD7d-21" value="" style="ellipse;whiteSpace=wrap;html=1;aspect=fixed;sketch=1;fontFamily=Comic Sans MS;" vertex="1" parent="1">
          <mxGeometry x="695" y="135" width="10" height="10" as="geometry" />
        </mxCell>
        <mxCell id="3rSdv7cUPAvAJedNGD7d-22" value="" style="endArrow=classic;html=1;rounded=0;sketch=1;fontFamily=Comic Sans MS;exitX=1;exitY=0.5;exitDx=0;exitDy=0;entryX=0;entryY=0.5;entryDx=0;entryDy=0;edgeStyle=orthogonalEdgeStyle;" edge="1" parent="1" source="3rSdv7cUPAvAJedNGD7d-21" target="3rSdv7cUPAvAJedNGD7d-9">
          <mxGeometry width="50" height="50" relative="1" as="geometry">
            <mxPoint x="1030" y="290" as="sourcePoint" />
            <mxPoint x="760" y="140" as="targetPoint" />
            <Array as="points">
              <mxPoint x="760" y="140" />
              <mxPoint x="760" y="100" />
            </Array>
          </mxGeometry>
        </mxCell>
        <mxCell id="3rSdv7cUPAvAJedNGD7d-23" value="" style="ellipse;whiteSpace=wrap;html=1;aspect=fixed;sketch=1;fontFamily=Comic Sans MS;" vertex="1" parent="1">
          <mxGeometry x="815" y="135" width="10" height="10" as="geometry" />
        </mxCell>
        <mxCell id="3rSdv7cUPAvAJedNGD7d-24" value="k=4" style="ellipse;shape=cloud;whiteSpace=wrap;html=1;sketch=1;fontFamily=Comic Sans MS;fillColor=#fff2cc;strokeColor=#d6b656;fontSize=20;" vertex="1" parent="1">
          <mxGeometry x="-60" y="30" width="120" height="80" as="geometry" />
        </mxCell>
        <mxCell id="3rSdv7cUPAvAJedNGD7d-25" value="1" style="rounded=0;whiteSpace=wrap;html=1;sketch=1;fontFamily=Comic Sans MS;" vertex="1" parent="1">
          <mxGeometry x="320" y="520" width="40" height="40" as="geometry" />
        </mxCell>
        <mxCell id="3rSdv7cUPAvAJedNGD7d-26" value="" style="rounded=0;whiteSpace=wrap;html=1;sketch=1;fontFamily=Comic Sans MS;" vertex="1" parent="1">
          <mxGeometry x="320" y="560" width="40" height="40" as="geometry" />
        </mxCell>
        <mxCell id="3rSdv7cUPAvAJedNGD7d-27" value="2" style="rounded=0;whiteSpace=wrap;html=1;sketch=1;fontFamily=Comic Sans MS;" vertex="1" parent="1">
          <mxGeometry x="440" y="520" width="40" height="40" as="geometry" />
        </mxCell>
        <mxCell id="3rSdv7cUPAvAJedNGD7d-28" value="" style="rounded=0;whiteSpace=wrap;html=1;sketch=1;fontFamily=Comic Sans MS;" vertex="1" parent="1">
          <mxGeometry x="440" y="560" width="40" height="40" as="geometry" />
        </mxCell>
        <mxCell id="3rSdv7cUPAvAJedNGD7d-29" value="3" style="rounded=0;whiteSpace=wrap;html=1;sketch=1;fontFamily=Comic Sans MS;" vertex="1" parent="1">
          <mxGeometry x="560" y="520" width="40" height="40" as="geometry" />
        </mxCell>
        <mxCell id="3rSdv7cUPAvAJedNGD7d-30" value="" style="rounded=0;whiteSpace=wrap;html=1;sketch=1;fontFamily=Comic Sans MS;" vertex="1" parent="1">
          <mxGeometry x="560" y="560" width="40" height="40" as="geometry" />
        </mxCell>
        <mxCell id="3rSdv7cUPAvAJedNGD7d-31" value="4" style="rounded=0;whiteSpace=wrap;html=1;sketch=1;fontFamily=Comic Sans MS;" vertex="1" parent="1">
          <mxGeometry x="680" y="520" width="40" height="40" as="geometry" />
        </mxCell>
        <mxCell id="3rSdv7cUPAvAJedNGD7d-32" value="" style="rounded=0;whiteSpace=wrap;html=1;sketch=1;fontFamily=Comic Sans MS;" vertex="1" parent="1">
          <mxGeometry x="680" y="560" width="40" height="40" as="geometry" />
        </mxCell>
        <mxCell id="3rSdv7cUPAvAJedNGD7d-33" value="5" style="rounded=0;whiteSpace=wrap;html=1;sketch=1;fontFamily=Comic Sans MS;" vertex="1" parent="1">
          <mxGeometry x="800" y="520" width="40" height="40" as="geometry" />
        </mxCell>
        <mxCell id="3rSdv7cUPAvAJedNGD7d-34" value="" style="rounded=0;whiteSpace=wrap;html=1;sketch=1;fontFamily=Comic Sans MS;" vertex="1" parent="1">
          <mxGeometry x="800" y="560" width="40" height="40" as="geometry" />
        </mxCell>
        <mxCell id="3rSdv7cUPAvAJedNGD7d-35" value="dummy" style="rounded=0;whiteSpace=wrap;html=1;sketch=1;fontFamily=Comic Sans MS;" vertex="1" parent="1">
          <mxGeometry x="200" y="520" width="40" height="40" as="geometry" />
        </mxCell>
        <mxCell id="3rSdv7cUPAvAJedNGD7d-36" value="" style="rounded=0;whiteSpace=wrap;html=1;sketch=1;fontFamily=Comic Sans MS;" vertex="1" parent="1">
          <mxGeometry x="200" y="560" width="40" height="40" as="geometry" />
        </mxCell>
        <mxCell id="3rSdv7cUPAvAJedNGD7d-37" value="" style="ellipse;whiteSpace=wrap;html=1;aspect=fixed;sketch=1;fontFamily=Comic Sans MS;" vertex="1" parent="1">
          <mxGeometry x="215" y="575" width="10" height="10" as="geometry" />
        </mxCell>
        <mxCell id="3rSdv7cUPAvAJedNGD7d-38" value="" style="endArrow=classic;html=1;rounded=0;sketch=1;fontFamily=Comic Sans MS;exitX=1;exitY=0.5;exitDx=0;exitDy=0;edgeStyle=orthogonalEdgeStyle;entryX=0.5;entryY=0;entryDx=0;entryDy=0;" edge="1" parent="1" source="3rSdv7cUPAvAJedNGD7d-37" target="3rSdv7cUPAvAJedNGD7d-27">
          <mxGeometry width="50" height="50" relative="1" as="geometry">
            <mxPoint x="550" y="730" as="sourcePoint" />
            <mxPoint x="460" y="510" as="targetPoint" />
            <Array as="points">
              <mxPoint x="280" y="580" />
              <mxPoint x="280" y="480" />
              <mxPoint x="460" y="480" />
            </Array>
          </mxGeometry>
        </mxCell>
        <mxCell id="3rSdv7cUPAvAJedNGD7d-39" value="" style="ellipse;whiteSpace=wrap;html=1;aspect=fixed;sketch=1;fontFamily=Comic Sans MS;" vertex="1" parent="1">
          <mxGeometry x="335" y="575" width="10" height="10" as="geometry" />
        </mxCell>
        <mxCell id="3rSdv7cUPAvAJedNGD7d-40" value="" style="endArrow=classic;html=1;rounded=0;sketch=1;fontFamily=Comic Sans MS;exitX=0;exitY=0.5;exitDx=0;exitDy=0;entryX=1;entryY=0.5;entryDx=0;entryDy=0;edgeStyle=orthogonalEdgeStyle;" edge="1" parent="1" source="3rSdv7cUPAvAJedNGD7d-41" target="3rSdv7cUPAvAJedNGD7d-25">
          <mxGeometry width="50" height="50" relative="1" as="geometry">
            <mxPoint x="670" y="730" as="sourcePoint" />
            <mxPoint x="400" y="580" as="targetPoint" />
            <Array as="points">
              <mxPoint x="400" y="580" />
              <mxPoint x="400" y="540" />
            </Array>
          </mxGeometry>
        </mxCell>
        <mxCell id="3rSdv7cUPAvAJedNGD7d-41" value="" style="ellipse;whiteSpace=wrap;html=1;aspect=fixed;sketch=1;fontFamily=Comic Sans MS;" vertex="1" parent="1">
          <mxGeometry x="455" y="575" width="10" height="10" as="geometry" />
        </mxCell>
        <mxCell id="3rSdv7cUPAvAJedNGD7d-42" value="" style="endArrow=classic;html=1;rounded=0;sketch=1;fontFamily=Comic Sans MS;entryX=0.5;entryY=1;entryDx=0;entryDy=0;edgeStyle=orthogonalEdgeStyle;exitX=0.5;exitY=1;exitDx=0;exitDy=0;" edge="1" parent="1" source="3rSdv7cUPAvAJedNGD7d-39" target="3rSdv7cUPAvAJedNGD7d-30">
          <mxGeometry width="50" height="50" relative="1" as="geometry">
            <mxPoint x="330" y="610" as="sourcePoint" />
            <mxPoint x="520" y="580" as="targetPoint" />
            <Array as="points">
              <mxPoint x="340" y="620" />
              <mxPoint x="580" y="620" />
            </Array>
          </mxGeometry>
        </mxCell>
        <mxCell id="3rSdv7cUPAvAJedNGD7d-43" value="" style="ellipse;whiteSpace=wrap;html=1;aspect=fixed;sketch=1;fontFamily=Comic Sans MS;" vertex="1" parent="1">
          <mxGeometry x="575" y="575" width="10" height="10" as="geometry" />
        </mxCell>
        <mxCell id="3rSdv7cUPAvAJedNGD7d-44" value="" style="endArrow=classic;html=1;rounded=0;sketch=1;fontFamily=Comic Sans MS;exitX=1;exitY=0.5;exitDx=0;exitDy=0;entryX=0;entryY=0.5;entryDx=0;entryDy=0;edgeStyle=orthogonalEdgeStyle;" edge="1" parent="1" source="3rSdv7cUPAvAJedNGD7d-43" target="3rSdv7cUPAvAJedNGD7d-31">
          <mxGeometry width="50" height="50" relative="1" as="geometry">
            <mxPoint x="910" y="730" as="sourcePoint" />
            <mxPoint x="640" y="580" as="targetPoint" />
            <Array as="points">
              <mxPoint x="640" y="580" />
              <mxPoint x="640" y="540" />
            </Array>
          </mxGeometry>
        </mxCell>
        <mxCell id="3rSdv7cUPAvAJedNGD7d-45" value="" style="ellipse;whiteSpace=wrap;html=1;aspect=fixed;sketch=1;fontFamily=Comic Sans MS;" vertex="1" parent="1">
          <mxGeometry x="695" y="575" width="10" height="10" as="geometry" />
        </mxCell>
        <mxCell id="3rSdv7cUPAvAJedNGD7d-46" value="" style="endArrow=classic;html=1;rounded=0;sketch=1;fontFamily=Comic Sans MS;exitX=1;exitY=0.5;exitDx=0;exitDy=0;entryX=0;entryY=0.5;entryDx=0;entryDy=0;edgeStyle=orthogonalEdgeStyle;" edge="1" parent="1" source="3rSdv7cUPAvAJedNGD7d-45" target="3rSdv7cUPAvAJedNGD7d-33">
          <mxGeometry width="50" height="50" relative="1" as="geometry">
            <mxPoint x="1030" y="730" as="sourcePoint" />
            <mxPoint x="760" y="580" as="targetPoint" />
            <Array as="points">
              <mxPoint x="760" y="580" />
              <mxPoint x="760" y="540" />
            </Array>
          </mxGeometry>
        </mxCell>
        <mxCell id="3rSdv7cUPAvAJedNGD7d-47" value="" style="ellipse;whiteSpace=wrap;html=1;aspect=fixed;sketch=1;fontFamily=Comic Sans MS;" vertex="1" parent="1">
          <mxGeometry x="815" y="575" width="10" height="10" as="geometry" />
        </mxCell>
        <mxCell id="3rSdv7cUPAvAJedNGD7d-48" value="1" style="rounded=0;whiteSpace=wrap;html=1;sketch=1;fontFamily=Comic Sans MS;" vertex="1" parent="1">
          <mxGeometry x="320" y="1479.96" width="40" height="40" as="geometry" />
        </mxCell>
        <mxCell id="3rSdv7cUPAvAJedNGD7d-49" value="" style="rounded=0;whiteSpace=wrap;html=1;sketch=1;fontFamily=Comic Sans MS;" vertex="1" parent="1">
          <mxGeometry x="320" y="1519.96" width="40" height="40" as="geometry" />
        </mxCell>
        <mxCell id="3rSdv7cUPAvAJedNGD7d-50" value="2" style="rounded=0;whiteSpace=wrap;html=1;sketch=1;fontFamily=Comic Sans MS;" vertex="1" parent="1">
          <mxGeometry x="440" y="1479.96" width="40" height="40" as="geometry" />
        </mxCell>
        <mxCell id="3rSdv7cUPAvAJedNGD7d-51" value="" style="rounded=0;whiteSpace=wrap;html=1;sketch=1;fontFamily=Comic Sans MS;" vertex="1" parent="1">
          <mxGeometry x="440" y="1519.96" width="40" height="40" as="geometry" />
        </mxCell>
        <mxCell id="3rSdv7cUPAvAJedNGD7d-52" value="3" style="rounded=0;whiteSpace=wrap;html=1;sketch=1;fontFamily=Comic Sans MS;" vertex="1" parent="1">
          <mxGeometry x="560" y="1479.96" width="40" height="40" as="geometry" />
        </mxCell>
        <mxCell id="3rSdv7cUPAvAJedNGD7d-53" value="" style="rounded=0;whiteSpace=wrap;html=1;sketch=1;fontFamily=Comic Sans MS;" vertex="1" parent="1">
          <mxGeometry x="560" y="1519.96" width="40" height="40" as="geometry" />
        </mxCell>
        <mxCell id="3rSdv7cUPAvAJedNGD7d-54" value="4" style="rounded=0;whiteSpace=wrap;html=1;sketch=1;fontFamily=Comic Sans MS;" vertex="1" parent="1">
          <mxGeometry x="680" y="1479.96" width="40" height="40" as="geometry" />
        </mxCell>
        <mxCell id="3rSdv7cUPAvAJedNGD7d-55" value="" style="rounded=0;whiteSpace=wrap;html=1;sketch=1;fontFamily=Comic Sans MS;" vertex="1" parent="1">
          <mxGeometry x="680" y="1519.96" width="40" height="40" as="geometry" />
        </mxCell>
        <mxCell id="3rSdv7cUPAvAJedNGD7d-56" value="5" style="rounded=0;whiteSpace=wrap;html=1;sketch=1;fontFamily=Comic Sans MS;" vertex="1" parent="1">
          <mxGeometry x="800" y="1479.96" width="40" height="40" as="geometry" />
        </mxCell>
        <mxCell id="3rSdv7cUPAvAJedNGD7d-57" value="" style="rounded=0;whiteSpace=wrap;html=1;sketch=1;fontFamily=Comic Sans MS;" vertex="1" parent="1">
          <mxGeometry x="800" y="1519.96" width="40" height="40" as="geometry" />
        </mxCell>
        <mxCell id="3rSdv7cUPAvAJedNGD7d-58" value="dummy" style="rounded=0;whiteSpace=wrap;html=1;sketch=1;fontFamily=Comic Sans MS;" vertex="1" parent="1">
          <mxGeometry x="200" y="1479.96" width="40" height="40" as="geometry" />
        </mxCell>
        <mxCell id="3rSdv7cUPAvAJedNGD7d-59" value="" style="rounded=0;whiteSpace=wrap;html=1;sketch=1;fontFamily=Comic Sans MS;" vertex="1" parent="1">
          <mxGeometry x="200" y="1519.96" width="40" height="40" as="geometry" />
        </mxCell>
        <mxCell id="3rSdv7cUPAvAJedNGD7d-60" value="" style="ellipse;whiteSpace=wrap;html=1;aspect=fixed;sketch=1;fontFamily=Comic Sans MS;" vertex="1" parent="1">
          <mxGeometry x="215" y="1534.96" width="10" height="10" as="geometry" />
        </mxCell>
        <mxCell id="3rSdv7cUPAvAJedNGD7d-61" value="" style="endArrow=classic;html=1;rounded=0;sketch=1;fontFamily=Comic Sans MS;exitX=1;exitY=0.5;exitDx=0;exitDy=0;edgeStyle=orthogonalEdgeStyle;entryX=0.5;entryY=0;entryDx=0;entryDy=0;" edge="1" parent="1" source="3rSdv7cUPAvAJedNGD7d-60" target="3rSdv7cUPAvAJedNGD7d-52">
          <mxGeometry width="50" height="50" relative="1" as="geometry">
            <mxPoint x="550" y="1569.91" as="sourcePoint" />
            <mxPoint x="590" y="1339.91" as="targetPoint" />
            <Array as="points">
              <mxPoint x="280" y="1539.96" />
              <mxPoint x="280" y="1439.96" />
              <mxPoint x="580" y="1439.96" />
            </Array>
          </mxGeometry>
        </mxCell>
        <mxCell id="3rSdv7cUPAvAJedNGD7d-62" value="" style="ellipse;whiteSpace=wrap;html=1;aspect=fixed;sketch=1;fontFamily=Comic Sans MS;" vertex="1" parent="1">
          <mxGeometry x="335" y="1534.96" width="10" height="10" as="geometry" />
        </mxCell>
        <mxCell id="3rSdv7cUPAvAJedNGD7d-63" value="" style="endArrow=classic;html=1;rounded=0;sketch=1;fontFamily=Comic Sans MS;exitX=0;exitY=0;exitDx=0;exitDy=0;entryX=1;entryY=0.5;entryDx=0;entryDy=0;edgeStyle=orthogonalEdgeStyle;" edge="1" parent="1" source="3rSdv7cUPAvAJedNGD7d-64" target="3rSdv7cUPAvAJedNGD7d-48">
          <mxGeometry width="50" height="50" relative="1" as="geometry">
            <mxPoint x="670" y="1689.96" as="sourcePoint" />
            <mxPoint x="400" y="1539.96" as="targetPoint" />
            <Array as="points">
              <mxPoint x="457" y="1539.96" />
              <mxPoint x="400" y="1539.96" />
              <mxPoint x="400" y="1499.96" />
            </Array>
          </mxGeometry>
        </mxCell>
        <mxCell id="3rSdv7cUPAvAJedNGD7d-64" value="" style="ellipse;whiteSpace=wrap;html=1;aspect=fixed;sketch=1;fontFamily=Comic Sans MS;" vertex="1" parent="1">
          <mxGeometry x="455" y="1534.96" width="10" height="10" as="geometry" />
        </mxCell>
        <mxCell id="3rSdv7cUPAvAJedNGD7d-65" value="" style="endArrow=classic;html=1;rounded=0;sketch=1;fontFamily=Comic Sans MS;entryX=0.5;entryY=1;entryDx=0;entryDy=0;edgeStyle=orthogonalEdgeStyle;exitX=0.5;exitY=1;exitDx=0;exitDy=0;" edge="1" parent="1" source="3rSdv7cUPAvAJedNGD7d-62" target="3rSdv7cUPAvAJedNGD7d-55">
          <mxGeometry width="50" height="50" relative="1" as="geometry">
            <mxPoint x="340" y="1569.96" as="sourcePoint" />
            <mxPoint x="520" y="1539.96" as="targetPoint" />
            <Array as="points">
              <mxPoint x="340" y="1589.96" />
              <mxPoint x="700" y="1589.96" />
            </Array>
          </mxGeometry>
        </mxCell>
        <mxCell id="3rSdv7cUPAvAJedNGD7d-66" value="" style="ellipse;whiteSpace=wrap;html=1;aspect=fixed;sketch=1;fontFamily=Comic Sans MS;" vertex="1" parent="1">
          <mxGeometry x="575" y="1534.96" width="10" height="10" as="geometry" />
        </mxCell>
        <mxCell id="3rSdv7cUPAvAJedNGD7d-67" value="" style="endArrow=classic;html=1;rounded=0;sketch=1;fontFamily=Comic Sans MS;edgeStyle=orthogonalEdgeStyle;exitX=0;exitY=0.5;exitDx=0;exitDy=0;" edge="1" parent="1" source="3rSdv7cUPAvAJedNGD7d-66" target="3rSdv7cUPAvAJedNGD7d-50">
          <mxGeometry width="50" height="50" relative="1" as="geometry">
            <mxPoint x="550" y="1539.96" as="sourcePoint" />
            <mxPoint x="640" y="1539.96" as="targetPoint" />
            <Array as="points">
              <mxPoint x="520" y="1539.96" />
              <mxPoint x="520" y="1499.96" />
            </Array>
          </mxGeometry>
        </mxCell>
        <mxCell id="3rSdv7cUPAvAJedNGD7d-68" value="" style="ellipse;whiteSpace=wrap;html=1;aspect=fixed;sketch=1;fontFamily=Comic Sans MS;" vertex="1" parent="1">
          <mxGeometry x="695" y="1534.96" width="10" height="10" as="geometry" />
        </mxCell>
        <mxCell id="3rSdv7cUPAvAJedNGD7d-69" value="" style="endArrow=classic;html=1;rounded=0;sketch=1;fontFamily=Comic Sans MS;exitX=1;exitY=0.5;exitDx=0;exitDy=0;entryX=0;entryY=0.5;entryDx=0;entryDy=0;edgeStyle=orthogonalEdgeStyle;" edge="1" parent="1" source="3rSdv7cUPAvAJedNGD7d-68" target="3rSdv7cUPAvAJedNGD7d-56">
          <mxGeometry width="50" height="50" relative="1" as="geometry">
            <mxPoint x="1030" y="1689.96" as="sourcePoint" />
            <mxPoint x="760" y="1539.96" as="targetPoint" />
            <Array as="points">
              <mxPoint x="760" y="1539.96" />
              <mxPoint x="760" y="1499.96" />
            </Array>
          </mxGeometry>
        </mxCell>
        <mxCell id="3rSdv7cUPAvAJedNGD7d-70" value="" style="ellipse;whiteSpace=wrap;html=1;aspect=fixed;sketch=1;fontFamily=Comic Sans MS;" vertex="1" parent="1">
          <mxGeometry x="815" y="1534.96" width="10" height="10" as="geometry" />
        </mxCell>
        <mxCell id="3rSdv7cUPAvAJedNGD7d-71" value="1" style="rounded=0;whiteSpace=wrap;html=1;sketch=1;fontFamily=Comic Sans MS;" vertex="1" parent="1">
          <mxGeometry x="320" y="1879.8600000000001" width="40" height="40" as="geometry" />
        </mxCell>
        <mxCell id="3rSdv7cUPAvAJedNGD7d-72" value="" style="rounded=0;whiteSpace=wrap;html=1;sketch=1;fontFamily=Comic Sans MS;" vertex="1" parent="1">
          <mxGeometry x="320" y="1919.8600000000001" width="40" height="40" as="geometry" />
        </mxCell>
        <mxCell id="3rSdv7cUPAvAJedNGD7d-73" value="2" style="rounded=0;whiteSpace=wrap;html=1;sketch=1;fontFamily=Comic Sans MS;" vertex="1" parent="1">
          <mxGeometry x="440" y="1879.8600000000001" width="40" height="40" as="geometry" />
        </mxCell>
        <mxCell id="3rSdv7cUPAvAJedNGD7d-74" value="" style="rounded=0;whiteSpace=wrap;html=1;sketch=1;fontFamily=Comic Sans MS;" vertex="1" parent="1">
          <mxGeometry x="440" y="1919.8600000000001" width="40" height="40" as="geometry" />
        </mxCell>
        <mxCell id="3rSdv7cUPAvAJedNGD7d-75" value="3" style="rounded=0;whiteSpace=wrap;html=1;sketch=1;fontFamily=Comic Sans MS;" vertex="1" parent="1">
          <mxGeometry x="560" y="1879.8600000000001" width="40" height="40" as="geometry" />
        </mxCell>
        <mxCell id="3rSdv7cUPAvAJedNGD7d-76" value="" style="rounded=0;whiteSpace=wrap;html=1;sketch=1;fontFamily=Comic Sans MS;" vertex="1" parent="1">
          <mxGeometry x="560" y="1919.8600000000001" width="40" height="40" as="geometry" />
        </mxCell>
        <mxCell id="3rSdv7cUPAvAJedNGD7d-77" value="4" style="rounded=0;whiteSpace=wrap;html=1;sketch=1;fontFamily=Comic Sans MS;" vertex="1" parent="1">
          <mxGeometry x="680" y="1879.8600000000001" width="40" height="40" as="geometry" />
        </mxCell>
        <mxCell id="3rSdv7cUPAvAJedNGD7d-78" value="" style="rounded=0;whiteSpace=wrap;html=1;sketch=1;fontFamily=Comic Sans MS;" vertex="1" parent="1">
          <mxGeometry x="680" y="1919.8600000000001" width="40" height="40" as="geometry" />
        </mxCell>
        <mxCell id="3rSdv7cUPAvAJedNGD7d-79" value="5" style="rounded=0;whiteSpace=wrap;html=1;sketch=1;fontFamily=Comic Sans MS;" vertex="1" parent="1">
          <mxGeometry x="800" y="1879.8600000000001" width="40" height="40" as="geometry" />
        </mxCell>
        <mxCell id="3rSdv7cUPAvAJedNGD7d-80" value="" style="rounded=0;whiteSpace=wrap;html=1;sketch=1;fontFamily=Comic Sans MS;" vertex="1" parent="1">
          <mxGeometry x="800" y="1919.8600000000001" width="40" height="40" as="geometry" />
        </mxCell>
        <mxCell id="3rSdv7cUPAvAJedNGD7d-81" value="dummy" style="rounded=0;whiteSpace=wrap;html=1;sketch=1;fontFamily=Comic Sans MS;" vertex="1" parent="1">
          <mxGeometry x="200" y="1879.8600000000001" width="40" height="40" as="geometry" />
        </mxCell>
        <mxCell id="3rSdv7cUPAvAJedNGD7d-82" value="" style="rounded=0;whiteSpace=wrap;html=1;sketch=1;fontFamily=Comic Sans MS;" vertex="1" parent="1">
          <mxGeometry x="200" y="1919.8600000000001" width="40" height="40" as="geometry" />
        </mxCell>
        <mxCell id="3rSdv7cUPAvAJedNGD7d-83" value="" style="ellipse;whiteSpace=wrap;html=1;aspect=fixed;sketch=1;fontFamily=Comic Sans MS;" vertex="1" parent="1">
          <mxGeometry x="215" y="1934.8600000000001" width="10" height="10" as="geometry" />
        </mxCell>
        <mxCell id="3rSdv7cUPAvAJedNGD7d-84" value="" style="endArrow=classic;html=1;rounded=0;sketch=1;fontFamily=Comic Sans MS;exitX=1;exitY=0.5;exitDx=0;exitDy=0;edgeStyle=orthogonalEdgeStyle;entryX=0.5;entryY=0;entryDx=0;entryDy=0;" edge="1" parent="1" source="3rSdv7cUPAvAJedNGD7d-83" target="3rSdv7cUPAvAJedNGD7d-77">
          <mxGeometry width="50" height="50" relative="1" as="geometry">
            <mxPoint x="550" y="2089.86" as="sourcePoint" />
            <mxPoint x="590" y="1859.86" as="targetPoint" />
            <Array as="points">
              <mxPoint x="280" y="1939.94" />
              <mxPoint x="280" y="1839.94" />
              <mxPoint x="700" y="1839.94" />
            </Array>
          </mxGeometry>
        </mxCell>
        <mxCell id="3rSdv7cUPAvAJedNGD7d-85" value="" style="ellipse;whiteSpace=wrap;html=1;aspect=fixed;sketch=1;fontFamily=Comic Sans MS;" vertex="1" parent="1">
          <mxGeometry x="335" y="1934.8600000000001" width="10" height="10" as="geometry" />
        </mxCell>
        <mxCell id="3rSdv7cUPAvAJedNGD7d-86" value="" style="endArrow=classic;html=1;rounded=0;sketch=1;fontFamily=Comic Sans MS;exitX=0;exitY=0;exitDx=0;exitDy=0;entryX=1;entryY=0.5;entryDx=0;entryDy=0;edgeStyle=orthogonalEdgeStyle;" edge="1" parent="1" source="3rSdv7cUPAvAJedNGD7d-87" target="3rSdv7cUPAvAJedNGD7d-71">
          <mxGeometry width="50" height="50" relative="1" as="geometry">
            <mxPoint x="670" y="2089.86" as="sourcePoint" />
            <mxPoint x="400" y="1939.8600000000001" as="targetPoint" />
            <Array as="points">
              <mxPoint x="457" y="1939.8600000000001" />
              <mxPoint x="400" y="1939.8600000000001" />
              <mxPoint x="400" y="1899.8600000000001" />
            </Array>
          </mxGeometry>
        </mxCell>
        <mxCell id="3rSdv7cUPAvAJedNGD7d-87" value="" style="ellipse;whiteSpace=wrap;html=1;aspect=fixed;sketch=1;fontFamily=Comic Sans MS;" vertex="1" parent="1">
          <mxGeometry x="455" y="1934.8600000000001" width="10" height="10" as="geometry" />
        </mxCell>
        <mxCell id="3rSdv7cUPAvAJedNGD7d-88" value="" style="endArrow=classic;html=1;rounded=0;sketch=1;fontFamily=Comic Sans MS;entryX=0.5;entryY=1;entryDx=0;entryDy=0;edgeStyle=orthogonalEdgeStyle;exitX=0;exitY=1;exitDx=0;exitDy=0;" edge="1" parent="1" source="3rSdv7cUPAvAJedNGD7d-85" target="3rSdv7cUPAvAJedNGD7d-80">
          <mxGeometry width="50" height="50" relative="1" as="geometry">
            <mxPoint x="340" y="1949.94" as="sourcePoint" />
            <mxPoint x="520" y="1939.8600000000001" as="targetPoint" />
            <Array as="points">
              <mxPoint x="340" y="1943" />
              <mxPoint x="340" y="1980" />
              <mxPoint x="820" y="1980" />
            </Array>
          </mxGeometry>
        </mxCell>
        <mxCell id="3rSdv7cUPAvAJedNGD7d-89" value="" style="ellipse;whiteSpace=wrap;html=1;aspect=fixed;sketch=1;fontFamily=Comic Sans MS;" vertex="1" parent="1">
          <mxGeometry x="575" y="1934.8600000000001" width="10" height="10" as="geometry" />
        </mxCell>
        <mxCell id="3rSdv7cUPAvAJedNGD7d-90" value="" style="endArrow=classic;html=1;rounded=0;sketch=1;fontFamily=Comic Sans MS;edgeStyle=orthogonalEdgeStyle;exitX=0;exitY=0.5;exitDx=0;exitDy=0;" edge="1" parent="1" source="3rSdv7cUPAvAJedNGD7d-89" target="3rSdv7cUPAvAJedNGD7d-73">
          <mxGeometry width="50" height="50" relative="1" as="geometry">
            <mxPoint x="550" y="1939.8600000000001" as="sourcePoint" />
            <mxPoint x="640" y="1939.8600000000001" as="targetPoint" />
            <Array as="points">
              <mxPoint x="520" y="1939.8600000000001" />
              <mxPoint x="520" y="1899.8600000000001" />
            </Array>
          </mxGeometry>
        </mxCell>
        <mxCell id="3rSdv7cUPAvAJedNGD7d-91" value="" style="ellipse;whiteSpace=wrap;html=1;aspect=fixed;sketch=1;fontFamily=Comic Sans MS;" vertex="1" parent="1">
          <mxGeometry x="695" y="1934.8600000000001" width="10" height="10" as="geometry" />
        </mxCell>
        <mxCell id="3rSdv7cUPAvAJedNGD7d-92" value="" style="endArrow=classic;html=1;rounded=0;sketch=1;fontFamily=Comic Sans MS;entryX=1;entryY=0.5;entryDx=0;entryDy=0;edgeStyle=orthogonalEdgeStyle;" edge="1" parent="1" source="3rSdv7cUPAvAJedNGD7d-91" target="3rSdv7cUPAvAJedNGD7d-75">
          <mxGeometry width="50" height="50" relative="1" as="geometry">
            <mxPoint x="650" y="1959.94" as="sourcePoint" />
            <mxPoint x="760" y="1939.8600000000001" as="targetPoint" />
            <Array as="points">
              <mxPoint x="640" y="1939.94" />
              <mxPoint x="640" y="1899.94" />
            </Array>
          </mxGeometry>
        </mxCell>
        <mxCell id="3rSdv7cUPAvAJedNGD7d-93" value="" style="ellipse;whiteSpace=wrap;html=1;aspect=fixed;sketch=1;fontFamily=Comic Sans MS;" vertex="1" parent="1">
          <mxGeometry x="825" y="1934.8600000000001" width="10" height="10" as="geometry" />
        </mxCell>
        <mxCell id="3rSdv7cUPAvAJedNGD7d-95" value="&lt;font color=&quot;#ff3333&quot;&gt;prev&lt;/font&gt;" style="rounded=0;whiteSpace=wrap;html=1;sketch=1;fontFamily=Comic Sans MS;strokeColor=#FF3333;verticalAlign=bottom;" vertex="1" parent="1">
          <mxGeometry x="200" y="200" width="40" height="40" as="geometry" />
        </mxCell>
        <mxCell id="3rSdv7cUPAvAJedNGD7d-96" value="" style="ellipse;whiteSpace=wrap;html=1;aspect=fixed;sketch=1;fontFamily=Comic Sans MS;strokeColor=#FF3333;" vertex="1" parent="1">
          <mxGeometry x="215" y="215" width="10" height="10" as="geometry" />
        </mxCell>
        <mxCell id="3rSdv7cUPAvAJedNGD7d-98" value="" style="endArrow=classic;html=1;rounded=0;sketch=1;fontFamily=Comic Sans MS;fontSize=20;strokeColor=#FF3333;entryX=0.5;entryY=1;entryDx=0;entryDy=0;" edge="1" parent="1" source="3rSdv7cUPAvAJedNGD7d-96" target="3rSdv7cUPAvAJedNGD7d-12">
          <mxGeometry width="50" height="50" relative="1" as="geometry">
            <mxPoint x="370" y="260" as="sourcePoint" />
            <mxPoint x="420" y="210" as="targetPoint" />
          </mxGeometry>
        </mxCell>
        <mxCell id="3rSdv7cUPAvAJedNGD7d-99" value="&lt;font color=&quot;#ff3333&quot;&gt;next&lt;/font&gt;" style="rounded=0;whiteSpace=wrap;html=1;sketch=1;fontFamily=Comic Sans MS;strokeColor=#FF3333;verticalAlign=bottom;" vertex="1" parent="1">
          <mxGeometry x="800" y="200" width="40" height="40" as="geometry" />
        </mxCell>
        <mxCell id="3rSdv7cUPAvAJedNGD7d-100" value="" style="ellipse;whiteSpace=wrap;html=1;aspect=fixed;sketch=1;fontFamily=Comic Sans MS;strokeColor=#FF3333;" vertex="1" parent="1">
          <mxGeometry x="815" y="215" width="10" height="10" as="geometry" />
        </mxCell>
        <mxCell id="3rSdv7cUPAvAJedNGD7d-101" value="" style="endArrow=classic;html=1;rounded=0;sketch=1;fontFamily=Comic Sans MS;fontSize=20;strokeColor=#FF3333;entryX=0.5;entryY=1;entryDx=0;entryDy=0;" edge="1" parent="1" source="3rSdv7cUPAvAJedNGD7d-100">
          <mxGeometry width="50" height="50" relative="1" as="geometry">
            <mxPoint x="970" y="260" as="sourcePoint" />
            <mxPoint x="820" y="160" as="targetPoint" />
          </mxGeometry>
        </mxCell>
        <mxCell id="3rSdv7cUPAvAJedNGD7d-102" value="&lt;font color=&quot;#ff3333&quot;&gt;last&lt;/font&gt;" style="rounded=0;whiteSpace=wrap;html=1;sketch=1;fontFamily=Comic Sans MS;strokeColor=#FF3333;verticalAlign=bottom;" vertex="1" parent="1">
          <mxGeometry x="320" y="200" width="40" height="40" as="geometry" />
        </mxCell>
        <mxCell id="3rSdv7cUPAvAJedNGD7d-103" value="" style="ellipse;whiteSpace=wrap;html=1;aspect=fixed;sketch=1;fontFamily=Comic Sans MS;strokeColor=#FF3333;" vertex="1" parent="1">
          <mxGeometry x="335" y="215" width="10" height="10" as="geometry" />
        </mxCell>
        <mxCell id="3rSdv7cUPAvAJedNGD7d-104" value="" style="endArrow=classic;html=1;rounded=0;sketch=1;fontFamily=Comic Sans MS;fontSize=20;strokeColor=#FF3333;entryX=0.5;entryY=1;entryDx=0;entryDy=0;" edge="1" parent="1" source="3rSdv7cUPAvAJedNGD7d-103">
          <mxGeometry width="50" height="50" relative="1" as="geometry">
            <mxPoint x="490" y="260" as="sourcePoint" />
            <mxPoint x="339.9999999999998" y="160.00000000000006" as="targetPoint" />
          </mxGeometry>
        </mxCell>
        <mxCell id="3rSdv7cUPAvAJedNGD7d-105" value="&lt;font color=&quot;#ff3333&quot;&gt;curr&lt;/font&gt;" style="rounded=0;whiteSpace=wrap;html=1;sketch=1;fontFamily=Comic Sans MS;strokeColor=#FF3333;verticalAlign=bottom;" vertex="1" parent="1">
          <mxGeometry x="440" y="200" width="40" height="40" as="geometry" />
        </mxCell>
        <mxCell id="3rSdv7cUPAvAJedNGD7d-106" value="" style="ellipse;whiteSpace=wrap;html=1;aspect=fixed;sketch=1;fontFamily=Comic Sans MS;strokeColor=#FF3333;" vertex="1" parent="1">
          <mxGeometry x="455" y="215" width="10" height="10" as="geometry" />
        </mxCell>
        <mxCell id="3rSdv7cUPAvAJedNGD7d-107" value="" style="endArrow=classic;html=1;rounded=0;sketch=1;fontFamily=Comic Sans MS;fontSize=20;strokeColor=#FF3333;entryX=0.5;entryY=1;entryDx=0;entryDy=0;" edge="1" parent="1" source="3rSdv7cUPAvAJedNGD7d-106">
          <mxGeometry width="50" height="50" relative="1" as="geometry">
            <mxPoint x="610" y="260" as="sourcePoint" />
            <mxPoint x="459.9999999999998" y="160.00000000000006" as="targetPoint" />
          </mxGeometry>
        </mxCell>
        <mxCell id="3rSdv7cUPAvAJedNGD7d-108" value="&lt;font color=&quot;#000000&quot; style=&quot;font-size: 12px;&quot;&gt;last-&amp;gt;next = curr-&amp;gt;next;&lt;br&gt;curr-&amp;gt;next = prev-&amp;gt;next;&lt;br&gt;&lt;/font&gt;&lt;span style=&quot;color: rgb(0, 0, 0); font-size: 12px;&quot;&gt;prev-&amp;gt;next = curr;&lt;/span&gt;&lt;font color=&quot;#000000&quot; style=&quot;font-size: 12px;&quot;&gt;&lt;br&gt;&lt;/font&gt;" style="shape=document;whiteSpace=wrap;html=1;boundedLbl=1;sketch=1;fontFamily=Comic Sans MS;fontSize=20;fontColor=#FF3333;strokeColor=#000000;" vertex="1" parent="1">
          <mxGeometry x="200" y="320" width="230" height="110" as="geometry" />
        </mxCell>
        <mxCell id="3rSdv7cUPAvAJedNGD7d-121" value="&lt;font color=&quot;#ff3333&quot;&gt;prev&lt;/font&gt;" style="rounded=0;whiteSpace=wrap;html=1;sketch=1;fontFamily=Comic Sans MS;strokeColor=#FF3333;verticalAlign=bottom;" vertex="1" parent="1">
          <mxGeometry x="200" y="640" width="40" height="40" as="geometry" />
        </mxCell>
        <mxCell id="3rSdv7cUPAvAJedNGD7d-122" value="" style="ellipse;whiteSpace=wrap;html=1;aspect=fixed;sketch=1;fontFamily=Comic Sans MS;strokeColor=#FF3333;" vertex="1" parent="1">
          <mxGeometry x="215" y="655" width="10" height="10" as="geometry" />
        </mxCell>
        <mxCell id="3rSdv7cUPAvAJedNGD7d-123" value="" style="endArrow=classic;html=1;rounded=0;sketch=1;fontFamily=Comic Sans MS;fontSize=20;strokeColor=#FF3333;entryX=0.5;entryY=1;entryDx=0;entryDy=0;" edge="1" parent="1" source="3rSdv7cUPAvAJedNGD7d-122">
          <mxGeometry width="50" height="50" relative="1" as="geometry">
            <mxPoint x="370" y="700" as="sourcePoint" />
            <mxPoint x="220" y="600" as="targetPoint" />
          </mxGeometry>
        </mxCell>
        <mxCell id="3rSdv7cUPAvAJedNGD7d-124" value="&lt;font color=&quot;#ff3333&quot;&gt;next&lt;/font&gt;" style="rounded=0;whiteSpace=wrap;html=1;sketch=1;fontFamily=Comic Sans MS;strokeColor=#FF3333;verticalAlign=bottom;" vertex="1" parent="1">
          <mxGeometry x="800" y="640" width="40" height="40" as="geometry" />
        </mxCell>
        <mxCell id="3rSdv7cUPAvAJedNGD7d-125" value="" style="ellipse;whiteSpace=wrap;html=1;aspect=fixed;sketch=1;fontFamily=Comic Sans MS;strokeColor=#FF3333;" vertex="1" parent="1">
          <mxGeometry x="815" y="655" width="10" height="10" as="geometry" />
        </mxCell>
        <mxCell id="3rSdv7cUPAvAJedNGD7d-126" value="" style="endArrow=classic;html=1;rounded=0;sketch=1;fontFamily=Comic Sans MS;fontSize=20;strokeColor=#FF3333;entryX=0.5;entryY=1;entryDx=0;entryDy=0;" edge="1" parent="1" source="3rSdv7cUPAvAJedNGD7d-125">
          <mxGeometry width="50" height="50" relative="1" as="geometry">
            <mxPoint x="970" y="700" as="sourcePoint" />
            <mxPoint x="820.0000000000005" y="600" as="targetPoint" />
          </mxGeometry>
        </mxCell>
        <mxCell id="3rSdv7cUPAvAJedNGD7d-127" value="&lt;font color=&quot;#ff3333&quot;&gt;last&lt;/font&gt;" style="rounded=0;whiteSpace=wrap;html=1;sketch=1;fontFamily=Comic Sans MS;strokeColor=#FF3333;verticalAlign=bottom;" vertex="1" parent="1">
          <mxGeometry x="312" y="640" width="40" height="40" as="geometry" />
        </mxCell>
        <mxCell id="3rSdv7cUPAvAJedNGD7d-128" value="" style="ellipse;whiteSpace=wrap;html=1;aspect=fixed;sketch=1;fontFamily=Comic Sans MS;strokeColor=#FF3333;" vertex="1" parent="1">
          <mxGeometry x="327" y="655" width="10" height="10" as="geometry" />
        </mxCell>
        <mxCell id="3rSdv7cUPAvAJedNGD7d-129" value="" style="endArrow=classic;html=1;rounded=0;sketch=1;fontFamily=Comic Sans MS;fontSize=20;strokeColor=#FF3333;entryX=0.5;entryY=1;entryDx=0;entryDy=0;" edge="1" parent="1" source="3rSdv7cUPAvAJedNGD7d-128">
          <mxGeometry width="50" height="50" relative="1" as="geometry">
            <mxPoint x="482" y="700" as="sourcePoint" />
            <mxPoint x="332" y="600" as="targetPoint" />
          </mxGeometry>
        </mxCell>
        <mxCell id="3rSdv7cUPAvAJedNGD7d-130" value="&lt;font color=&quot;#ff3333&quot;&gt;curr&lt;/font&gt;" style="rounded=0;whiteSpace=wrap;html=1;sketch=1;fontFamily=Comic Sans MS;strokeColor=#FF3333;verticalAlign=bottom;" vertex="1" parent="1">
          <mxGeometry x="440" y="640" width="40" height="40" as="geometry" />
        </mxCell>
        <mxCell id="3rSdv7cUPAvAJedNGD7d-131" value="" style="ellipse;whiteSpace=wrap;html=1;aspect=fixed;sketch=1;fontFamily=Comic Sans MS;strokeColor=#FF3333;" vertex="1" parent="1">
          <mxGeometry x="455" y="655" width="10" height="10" as="geometry" />
        </mxCell>
        <mxCell id="3rSdv7cUPAvAJedNGD7d-132" value="" style="endArrow=classic;html=1;rounded=0;sketch=1;fontFamily=Comic Sans MS;fontSize=20;strokeColor=#FF3333;entryX=0.5;entryY=1;entryDx=0;entryDy=0;" edge="1" parent="1" source="3rSdv7cUPAvAJedNGD7d-131">
          <mxGeometry width="50" height="50" relative="1" as="geometry">
            <mxPoint x="610" y="700" as="sourcePoint" />
            <mxPoint x="460.00000000000045" y="600" as="targetPoint" />
          </mxGeometry>
        </mxCell>
        <mxCell id="3rSdv7cUPAvAJedNGD7d-134" value="1" style="rounded=0;whiteSpace=wrap;html=1;sketch=1;fontFamily=Comic Sans MS;" vertex="1" parent="1">
          <mxGeometry x="320" y="961" width="40" height="40" as="geometry" />
        </mxCell>
        <mxCell id="3rSdv7cUPAvAJedNGD7d-135" value="" style="rounded=0;whiteSpace=wrap;html=1;sketch=1;fontFamily=Comic Sans MS;" vertex="1" parent="1">
          <mxGeometry x="320" y="1001" width="40" height="40" as="geometry" />
        </mxCell>
        <mxCell id="3rSdv7cUPAvAJedNGD7d-136" value="2" style="rounded=0;whiteSpace=wrap;html=1;sketch=1;fontFamily=Comic Sans MS;" vertex="1" parent="1">
          <mxGeometry x="440" y="961" width="40" height="40" as="geometry" />
        </mxCell>
        <mxCell id="3rSdv7cUPAvAJedNGD7d-137" value="" style="rounded=0;whiteSpace=wrap;html=1;sketch=1;fontFamily=Comic Sans MS;" vertex="1" parent="1">
          <mxGeometry x="440" y="1001" width="40" height="40" as="geometry" />
        </mxCell>
        <mxCell id="3rSdv7cUPAvAJedNGD7d-138" value="3" style="rounded=0;whiteSpace=wrap;html=1;sketch=1;fontFamily=Comic Sans MS;" vertex="1" parent="1">
          <mxGeometry x="560" y="961" width="40" height="40" as="geometry" />
        </mxCell>
        <mxCell id="3rSdv7cUPAvAJedNGD7d-139" value="" style="rounded=0;whiteSpace=wrap;html=1;sketch=1;fontFamily=Comic Sans MS;" vertex="1" parent="1">
          <mxGeometry x="560" y="1001" width="40" height="40" as="geometry" />
        </mxCell>
        <mxCell id="3rSdv7cUPAvAJedNGD7d-140" value="4" style="rounded=0;whiteSpace=wrap;html=1;sketch=1;fontFamily=Comic Sans MS;" vertex="1" parent="1">
          <mxGeometry x="680" y="961" width="40" height="40" as="geometry" />
        </mxCell>
        <mxCell id="3rSdv7cUPAvAJedNGD7d-141" value="" style="rounded=0;whiteSpace=wrap;html=1;sketch=1;fontFamily=Comic Sans MS;" vertex="1" parent="1">
          <mxGeometry x="680" y="1001" width="40" height="40" as="geometry" />
        </mxCell>
        <mxCell id="3rSdv7cUPAvAJedNGD7d-142" value="5" style="rounded=0;whiteSpace=wrap;html=1;sketch=1;fontFamily=Comic Sans MS;" vertex="1" parent="1">
          <mxGeometry x="800" y="961" width="40" height="40" as="geometry" />
        </mxCell>
        <mxCell id="3rSdv7cUPAvAJedNGD7d-143" value="" style="rounded=0;whiteSpace=wrap;html=1;sketch=1;fontFamily=Comic Sans MS;" vertex="1" parent="1">
          <mxGeometry x="800" y="1001" width="40" height="40" as="geometry" />
        </mxCell>
        <mxCell id="3rSdv7cUPAvAJedNGD7d-144" value="dummy" style="rounded=0;whiteSpace=wrap;html=1;sketch=1;fontFamily=Comic Sans MS;" vertex="1" parent="1">
          <mxGeometry x="200" y="961" width="40" height="40" as="geometry" />
        </mxCell>
        <mxCell id="3rSdv7cUPAvAJedNGD7d-145" value="" style="rounded=0;whiteSpace=wrap;html=1;sketch=1;fontFamily=Comic Sans MS;" vertex="1" parent="1">
          <mxGeometry x="200" y="1001" width="40" height="40" as="geometry" />
        </mxCell>
        <mxCell id="3rSdv7cUPAvAJedNGD7d-146" value="" style="ellipse;whiteSpace=wrap;html=1;aspect=fixed;sketch=1;fontFamily=Comic Sans MS;" vertex="1" parent="1">
          <mxGeometry x="215" y="1016" width="10" height="10" as="geometry" />
        </mxCell>
        <mxCell id="3rSdv7cUPAvAJedNGD7d-147" value="" style="endArrow=classic;html=1;rounded=0;sketch=1;fontFamily=Comic Sans MS;exitX=1;exitY=0.5;exitDx=0;exitDy=0;edgeStyle=orthogonalEdgeStyle;entryX=0.5;entryY=0;entryDx=0;entryDy=0;" edge="1" parent="1" source="3rSdv7cUPAvAJedNGD7d-146" target="3rSdv7cUPAvAJedNGD7d-136">
          <mxGeometry width="50" height="50" relative="1" as="geometry">
            <mxPoint x="550" y="1171" as="sourcePoint" />
            <mxPoint x="460" y="951" as="targetPoint" />
            <Array as="points">
              <mxPoint x="280" y="1021" />
              <mxPoint x="280" y="921" />
              <mxPoint x="460" y="921" />
            </Array>
          </mxGeometry>
        </mxCell>
        <mxCell id="3rSdv7cUPAvAJedNGD7d-148" value="" style="ellipse;whiteSpace=wrap;html=1;aspect=fixed;sketch=1;fontFamily=Comic Sans MS;" vertex="1" parent="1">
          <mxGeometry x="335" y="1016" width="10" height="10" as="geometry" />
        </mxCell>
        <mxCell id="3rSdv7cUPAvAJedNGD7d-149" value="" style="endArrow=classic;html=1;rounded=0;sketch=1;fontFamily=Comic Sans MS;exitX=0;exitY=0.5;exitDx=0;exitDy=0;entryX=1;entryY=0.5;entryDx=0;entryDy=0;edgeStyle=orthogonalEdgeStyle;" edge="1" parent="1" source="3rSdv7cUPAvAJedNGD7d-150" target="3rSdv7cUPAvAJedNGD7d-134">
          <mxGeometry width="50" height="50" relative="1" as="geometry">
            <mxPoint x="670" y="1171" as="sourcePoint" />
            <mxPoint x="400" y="1021" as="targetPoint" />
            <Array as="points">
              <mxPoint x="400" y="1021" />
              <mxPoint x="400" y="981" />
            </Array>
          </mxGeometry>
        </mxCell>
        <mxCell id="3rSdv7cUPAvAJedNGD7d-150" value="" style="ellipse;whiteSpace=wrap;html=1;aspect=fixed;sketch=1;fontFamily=Comic Sans MS;" vertex="1" parent="1">
          <mxGeometry x="455" y="1016" width="10" height="10" as="geometry" />
        </mxCell>
        <mxCell id="3rSdv7cUPAvAJedNGD7d-151" value="" style="endArrow=classic;html=1;rounded=0;sketch=1;fontFamily=Comic Sans MS;entryX=0.5;entryY=1;entryDx=0;entryDy=0;edgeStyle=orthogonalEdgeStyle;exitX=0.5;exitY=1;exitDx=0;exitDy=0;" edge="1" parent="1" source="3rSdv7cUPAvAJedNGD7d-148" target="3rSdv7cUPAvAJedNGD7d-139">
          <mxGeometry width="50" height="50" relative="1" as="geometry">
            <mxPoint x="330" y="1051" as="sourcePoint" />
            <mxPoint x="520" y="1021" as="targetPoint" />
            <Array as="points">
              <mxPoint x="340" y="1061" />
              <mxPoint x="580" y="1061" />
            </Array>
          </mxGeometry>
        </mxCell>
        <mxCell id="3rSdv7cUPAvAJedNGD7d-152" value="" style="ellipse;whiteSpace=wrap;html=1;aspect=fixed;sketch=1;fontFamily=Comic Sans MS;" vertex="1" parent="1">
          <mxGeometry x="575" y="1016" width="10" height="10" as="geometry" />
        </mxCell>
        <mxCell id="3rSdv7cUPAvAJedNGD7d-153" value="" style="endArrow=classic;html=1;rounded=0;sketch=1;fontFamily=Comic Sans MS;exitX=1;exitY=0.5;exitDx=0;exitDy=0;entryX=0;entryY=0.5;entryDx=0;entryDy=0;edgeStyle=orthogonalEdgeStyle;" edge="1" parent="1" source="3rSdv7cUPAvAJedNGD7d-152" target="3rSdv7cUPAvAJedNGD7d-140">
          <mxGeometry width="50" height="50" relative="1" as="geometry">
            <mxPoint x="910" y="1171" as="sourcePoint" />
            <mxPoint x="640" y="1021" as="targetPoint" />
            <Array as="points">
              <mxPoint x="640" y="1021" />
              <mxPoint x="640" y="981" />
            </Array>
          </mxGeometry>
        </mxCell>
        <mxCell id="3rSdv7cUPAvAJedNGD7d-154" value="" style="ellipse;whiteSpace=wrap;html=1;aspect=fixed;sketch=1;fontFamily=Comic Sans MS;" vertex="1" parent="1">
          <mxGeometry x="695" y="1016" width="10" height="10" as="geometry" />
        </mxCell>
        <mxCell id="3rSdv7cUPAvAJedNGD7d-155" value="" style="endArrow=classic;html=1;rounded=0;sketch=1;fontFamily=Comic Sans MS;exitX=1;exitY=0.5;exitDx=0;exitDy=0;entryX=0;entryY=0.5;entryDx=0;entryDy=0;edgeStyle=orthogonalEdgeStyle;" edge="1" parent="1" source="3rSdv7cUPAvAJedNGD7d-154" target="3rSdv7cUPAvAJedNGD7d-142">
          <mxGeometry width="50" height="50" relative="1" as="geometry">
            <mxPoint x="1030" y="1171" as="sourcePoint" />
            <mxPoint x="760" y="1021" as="targetPoint" />
            <Array as="points">
              <mxPoint x="760" y="1021" />
              <mxPoint x="760" y="981" />
            </Array>
          </mxGeometry>
        </mxCell>
        <mxCell id="3rSdv7cUPAvAJedNGD7d-156" value="" style="ellipse;whiteSpace=wrap;html=1;aspect=fixed;sketch=1;fontFamily=Comic Sans MS;" vertex="1" parent="1">
          <mxGeometry x="815" y="1016" width="10" height="10" as="geometry" />
        </mxCell>
        <mxCell id="3rSdv7cUPAvAJedNGD7d-157" value="&lt;font color=&quot;#000000&quot; style=&quot;font-size: 12px;&quot;&gt;curr = last-&amp;gt;next&lt;br&gt;&lt;/font&gt;" style="shape=document;whiteSpace=wrap;html=1;boundedLbl=1;sketch=1;fontFamily=Comic Sans MS;fontSize=20;fontColor=#FF3333;strokeColor=#000000;" vertex="1" parent="1">
          <mxGeometry x="200" y="790" width="230" height="110" as="geometry" />
        </mxCell>
        <mxCell id="3rSdv7cUPAvAJedNGD7d-158" value="&lt;font color=&quot;#ff3333&quot;&gt;prev&lt;/font&gt;" style="rounded=0;whiteSpace=wrap;html=1;sketch=1;fontFamily=Comic Sans MS;strokeColor=#FF3333;verticalAlign=bottom;" vertex="1" parent="1">
          <mxGeometry x="200" y="1081" width="40" height="40" as="geometry" />
        </mxCell>
        <mxCell id="3rSdv7cUPAvAJedNGD7d-159" value="" style="ellipse;whiteSpace=wrap;html=1;aspect=fixed;sketch=1;fontFamily=Comic Sans MS;strokeColor=#FF3333;" vertex="1" parent="1">
          <mxGeometry x="215" y="1096" width="10" height="10" as="geometry" />
        </mxCell>
        <mxCell id="3rSdv7cUPAvAJedNGD7d-160" value="" style="endArrow=classic;html=1;rounded=0;sketch=1;fontFamily=Comic Sans MS;fontSize=20;strokeColor=#FF3333;entryX=0.5;entryY=1;entryDx=0;entryDy=0;" edge="1" parent="1" source="3rSdv7cUPAvAJedNGD7d-159">
          <mxGeometry width="50" height="50" relative="1" as="geometry">
            <mxPoint x="370" y="1141" as="sourcePoint" />
            <mxPoint x="220.00000000000045" y="1041.0000000000002" as="targetPoint" />
          </mxGeometry>
        </mxCell>
        <mxCell id="3rSdv7cUPAvAJedNGD7d-161" value="&lt;font color=&quot;#ff3333&quot;&gt;next&lt;/font&gt;" style="rounded=0;whiteSpace=wrap;html=1;sketch=1;fontFamily=Comic Sans MS;strokeColor=#FF3333;verticalAlign=bottom;" vertex="1" parent="1">
          <mxGeometry x="800" y="1081" width="40" height="40" as="geometry" />
        </mxCell>
        <mxCell id="3rSdv7cUPAvAJedNGD7d-162" value="" style="ellipse;whiteSpace=wrap;html=1;aspect=fixed;sketch=1;fontFamily=Comic Sans MS;strokeColor=#FF3333;" vertex="1" parent="1">
          <mxGeometry x="815" y="1096" width="10" height="10" as="geometry" />
        </mxCell>
        <mxCell id="3rSdv7cUPAvAJedNGD7d-163" value="" style="endArrow=classic;html=1;rounded=0;sketch=1;fontFamily=Comic Sans MS;fontSize=20;strokeColor=#FF3333;entryX=0.5;entryY=1;entryDx=0;entryDy=0;" edge="1" parent="1" source="3rSdv7cUPAvAJedNGD7d-162">
          <mxGeometry width="50" height="50" relative="1" as="geometry">
            <mxPoint x="970" y="1141" as="sourcePoint" />
            <mxPoint x="820" y="1041.0000000000002" as="targetPoint" />
          </mxGeometry>
        </mxCell>
        <mxCell id="3rSdv7cUPAvAJedNGD7d-164" value="&lt;font color=&quot;#ff3333&quot;&gt;last&lt;/font&gt;" style="rounded=0;whiteSpace=wrap;html=1;sketch=1;fontFamily=Comic Sans MS;strokeColor=#FF3333;verticalAlign=bottom;" vertex="1" parent="1">
          <mxGeometry x="311" y="1081" width="40" height="40" as="geometry" />
        </mxCell>
        <mxCell id="3rSdv7cUPAvAJedNGD7d-165" value="" style="ellipse;whiteSpace=wrap;html=1;aspect=fixed;sketch=1;fontFamily=Comic Sans MS;strokeColor=#FF3333;" vertex="1" parent="1">
          <mxGeometry x="326" y="1096" width="10" height="10" as="geometry" />
        </mxCell>
        <mxCell id="3rSdv7cUPAvAJedNGD7d-166" value="" style="endArrow=classic;html=1;rounded=0;sketch=1;fontFamily=Comic Sans MS;fontSize=20;strokeColor=#FF3333;entryX=0.5;entryY=1;entryDx=0;entryDy=0;" edge="1" parent="1" source="3rSdv7cUPAvAJedNGD7d-165">
          <mxGeometry width="50" height="50" relative="1" as="geometry">
            <mxPoint x="481" y="1141" as="sourcePoint" />
            <mxPoint x="331.00000000000045" y="1041.0000000000002" as="targetPoint" />
          </mxGeometry>
        </mxCell>
        <mxCell id="3rSdv7cUPAvAJedNGD7d-167" value="&lt;font color=&quot;#ff3333&quot;&gt;curr&lt;/font&gt;" style="rounded=0;whiteSpace=wrap;html=1;sketch=1;fontFamily=Comic Sans MS;strokeColor=#FF3333;verticalAlign=bottom;" vertex="1" parent="1">
          <mxGeometry x="570" y="1081" width="40" height="40" as="geometry" />
        </mxCell>
        <mxCell id="3rSdv7cUPAvAJedNGD7d-168" value="" style="ellipse;whiteSpace=wrap;html=1;aspect=fixed;sketch=1;fontFamily=Comic Sans MS;strokeColor=#FF3333;" vertex="1" parent="1">
          <mxGeometry x="585" y="1096" width="10" height="10" as="geometry" />
        </mxCell>
        <mxCell id="3rSdv7cUPAvAJedNGD7d-169" value="" style="endArrow=classic;html=1;rounded=0;sketch=1;fontFamily=Comic Sans MS;fontSize=20;strokeColor=#FF3333;entryX=0.5;entryY=1;entryDx=0;entryDy=0;" edge="1" parent="1" source="3rSdv7cUPAvAJedNGD7d-168">
          <mxGeometry width="50" height="50" relative="1" as="geometry">
            <mxPoint x="740" y="1141" as="sourcePoint" />
            <mxPoint x="590.0000000000005" y="1041.0000000000002" as="targetPoint" />
          </mxGeometry>
        </mxCell>
        <mxCell id="3rSdv7cUPAvAJedNGD7d-171" value="&lt;span style=&quot;color: rgb(0, 0, 0); font-size: 12px;&quot;&gt;prev-&amp;gt;next = last-&amp;gt;next;&lt;/span&gt;&lt;br style=&quot;color: rgb(0, 0, 0); font-size: 12px;&quot;&gt;&lt;span style=&quot;color: rgb(0, 0, 0); font-size: 12px;&quot;&gt;last-&amp;gt;next = curr-&amp;gt;next;&lt;/span&gt;&lt;br style=&quot;color: rgb(0, 0, 0); font-size: 12px;&quot;&gt;&lt;span style=&quot;color: rgb(0, 0, 0); font-size: 12px;&quot;&gt;curr-&amp;gt;next = last;&lt;/span&gt;&lt;font color=&quot;#000000&quot; style=&quot;font-size: 12px;&quot;&gt;&lt;br&gt;curr = last-&amp;gt;next&lt;br&gt;&lt;/font&gt;" style="shape=document;whiteSpace=wrap;html=1;boundedLbl=1;sketch=1;fontFamily=Comic Sans MS;fontSize=20;fontColor=#FF3333;strokeColor=#000000;" vertex="1" parent="1">
          <mxGeometry x="200" y="1280" width="230" height="120" as="geometry" />
        </mxCell>
        <mxCell id="3rSdv7cUPAvAJedNGD7d-197" value="&lt;font color=&quot;#ff3333&quot;&gt;prev&lt;/font&gt;" style="rounded=0;whiteSpace=wrap;html=1;sketch=1;fontFamily=Comic Sans MS;strokeColor=#FF3333;verticalAlign=bottom;" vertex="1" parent="1">
          <mxGeometry x="200" y="1599.96" width="40" height="40" as="geometry" />
        </mxCell>
        <mxCell id="3rSdv7cUPAvAJedNGD7d-198" value="" style="ellipse;whiteSpace=wrap;html=1;aspect=fixed;sketch=1;fontFamily=Comic Sans MS;strokeColor=#FF3333;" vertex="1" parent="1">
          <mxGeometry x="215" y="1614.96" width="10" height="10" as="geometry" />
        </mxCell>
        <mxCell id="3rSdv7cUPAvAJedNGD7d-199" value="" style="endArrow=classic;html=1;rounded=0;sketch=1;fontFamily=Comic Sans MS;fontSize=20;strokeColor=#FF3333;entryX=0.5;entryY=1;entryDx=0;entryDy=0;" edge="1" parent="1" source="3rSdv7cUPAvAJedNGD7d-198">
          <mxGeometry width="50" height="50" relative="1" as="geometry">
            <mxPoint x="370" y="1659.96" as="sourcePoint" />
            <mxPoint x="220.00000000000045" y="1559.9600000000003" as="targetPoint" />
          </mxGeometry>
        </mxCell>
        <mxCell id="3rSdv7cUPAvAJedNGD7d-200" value="&lt;font color=&quot;#ff3333&quot;&gt;next&lt;/font&gt;" style="rounded=0;whiteSpace=wrap;html=1;sketch=1;fontFamily=Comic Sans MS;strokeColor=#FF3333;verticalAlign=bottom;" vertex="1" parent="1">
          <mxGeometry x="800" y="1599.96" width="40" height="40" as="geometry" />
        </mxCell>
        <mxCell id="3rSdv7cUPAvAJedNGD7d-201" value="" style="ellipse;whiteSpace=wrap;html=1;aspect=fixed;sketch=1;fontFamily=Comic Sans MS;strokeColor=#FF3333;" vertex="1" parent="1">
          <mxGeometry x="815" y="1614.96" width="10" height="10" as="geometry" />
        </mxCell>
        <mxCell id="3rSdv7cUPAvAJedNGD7d-202" value="" style="endArrow=classic;html=1;rounded=0;sketch=1;fontFamily=Comic Sans MS;fontSize=20;strokeColor=#FF3333;entryX=0.5;entryY=1;entryDx=0;entryDy=0;" edge="1" parent="1" source="3rSdv7cUPAvAJedNGD7d-201">
          <mxGeometry width="50" height="50" relative="1" as="geometry">
            <mxPoint x="970" y="1659.96" as="sourcePoint" />
            <mxPoint x="820" y="1559.9600000000003" as="targetPoint" />
          </mxGeometry>
        </mxCell>
        <mxCell id="3rSdv7cUPAvAJedNGD7d-203" value="&lt;font color=&quot;#ff3333&quot;&gt;last&lt;/font&gt;" style="rounded=0;whiteSpace=wrap;html=1;sketch=1;fontFamily=Comic Sans MS;strokeColor=#FF3333;verticalAlign=bottom;" vertex="1" parent="1">
          <mxGeometry x="311" y="1599.96" width="40" height="40" as="geometry" />
        </mxCell>
        <mxCell id="3rSdv7cUPAvAJedNGD7d-204" value="" style="ellipse;whiteSpace=wrap;html=1;aspect=fixed;sketch=1;fontFamily=Comic Sans MS;strokeColor=#FF3333;" vertex="1" parent="1">
          <mxGeometry x="326" y="1614.96" width="10" height="10" as="geometry" />
        </mxCell>
        <mxCell id="3rSdv7cUPAvAJedNGD7d-205" value="" style="endArrow=classic;html=1;rounded=0;sketch=1;fontFamily=Comic Sans MS;fontSize=20;strokeColor=#FF3333;entryX=0.5;entryY=1;entryDx=0;entryDy=0;" edge="1" parent="1" source="3rSdv7cUPAvAJedNGD7d-204">
          <mxGeometry width="50" height="50" relative="1" as="geometry">
            <mxPoint x="481" y="1659.96" as="sourcePoint" />
            <mxPoint x="331.00000000000045" y="1559.9600000000003" as="targetPoint" />
          </mxGeometry>
        </mxCell>
        <mxCell id="3rSdv7cUPAvAJedNGD7d-206" value="&lt;font color=&quot;#ff3333&quot;&gt;curr&lt;/font&gt;" style="rounded=0;whiteSpace=wrap;html=1;sketch=1;fontFamily=Comic Sans MS;strokeColor=#FF3333;verticalAlign=bottom;" vertex="1" parent="1">
          <mxGeometry x="690" y="1599.96" width="40" height="40" as="geometry" />
        </mxCell>
        <mxCell id="3rSdv7cUPAvAJedNGD7d-207" value="" style="ellipse;whiteSpace=wrap;html=1;aspect=fixed;sketch=1;fontFamily=Comic Sans MS;strokeColor=#FF3333;" vertex="1" parent="1">
          <mxGeometry x="705" y="1614.96" width="10" height="10" as="geometry" />
        </mxCell>
        <mxCell id="3rSdv7cUPAvAJedNGD7d-208" value="" style="endArrow=classic;html=1;rounded=0;sketch=1;fontFamily=Comic Sans MS;fontSize=20;strokeColor=#FF3333;entryX=0.5;entryY=1;entryDx=0;entryDy=0;" edge="1" parent="1" source="3rSdv7cUPAvAJedNGD7d-207">
          <mxGeometry width="50" height="50" relative="1" as="geometry">
            <mxPoint x="860" y="1659.96" as="sourcePoint" />
            <mxPoint x="710.0000000000005" y="1559.9600000000003" as="targetPoint" />
          </mxGeometry>
        </mxCell>
        <mxCell id="3rSdv7cUPAvAJedNGD7d-209" value="&lt;span style=&quot;color: rgb(0, 0, 0); font-size: 12px;&quot;&gt;prev-&amp;gt;next = last-&amp;gt;next;&lt;/span&gt;&lt;br style=&quot;color: rgb(0, 0, 0); font-size: 12px;&quot;&gt;&lt;span style=&quot;color: rgb(0, 0, 0); font-size: 12px;&quot;&gt;last-&amp;gt;next = curr-&amp;gt;next;&lt;/span&gt;&lt;br style=&quot;color: rgb(0, 0, 0); font-size: 12px;&quot;&gt;&lt;span style=&quot;color: rgb(0, 0, 0); font-size: 12px;&quot;&gt;curr-&amp;gt;next = last;&lt;/span&gt;&lt;font color=&quot;#000000&quot; style=&quot;font-size: 12px;&quot;&gt;&lt;br&gt;curr = last-&amp;gt;next&lt;br&gt;&lt;/font&gt;" style="shape=document;whiteSpace=wrap;html=1;boundedLbl=1;sketch=1;fontFamily=Comic Sans MS;fontSize=20;fontColor=#FF3333;strokeColor=#000000;" vertex="1" parent="1">
          <mxGeometry x="200" y="1694" width="230" height="120" as="geometry" />
        </mxCell>
        <mxCell id="3rSdv7cUPAvAJedNGD7d-211" value="&lt;font color=&quot;#ff3333&quot;&gt;prev&lt;/font&gt;" style="rounded=0;whiteSpace=wrap;html=1;sketch=1;fontFamily=Comic Sans MS;strokeColor=#FF3333;verticalAlign=bottom;" vertex="1" parent="1">
          <mxGeometry x="200" y="1999.8600000000001" width="40" height="40" as="geometry" />
        </mxCell>
        <mxCell id="3rSdv7cUPAvAJedNGD7d-212" value="" style="ellipse;whiteSpace=wrap;html=1;aspect=fixed;sketch=1;fontFamily=Comic Sans MS;strokeColor=#FF3333;" vertex="1" parent="1">
          <mxGeometry x="215" y="2014.8600000000001" width="10" height="10" as="geometry" />
        </mxCell>
        <mxCell id="3rSdv7cUPAvAJedNGD7d-213" value="" style="endArrow=classic;html=1;rounded=0;sketch=1;fontFamily=Comic Sans MS;fontSize=20;strokeColor=#FF3333;entryX=0.5;entryY=1;entryDx=0;entryDy=0;" edge="1" parent="1" source="3rSdv7cUPAvAJedNGD7d-212">
          <mxGeometry width="50" height="50" relative="1" as="geometry">
            <mxPoint x="370" y="2059.86" as="sourcePoint" />
            <mxPoint x="220.00000000000045" y="1959.8600000000001" as="targetPoint" />
          </mxGeometry>
        </mxCell>
        <mxCell id="3rSdv7cUPAvAJedNGD7d-214" value="&lt;font color=&quot;#ff3333&quot;&gt;next&lt;/font&gt;" style="rounded=0;whiteSpace=wrap;html=1;sketch=1;fontFamily=Comic Sans MS;strokeColor=#FF3333;verticalAlign=bottom;" vertex="1" parent="1">
          <mxGeometry x="810" y="1999.8600000000001" width="40" height="40" as="geometry" />
        </mxCell>
        <mxCell id="3rSdv7cUPAvAJedNGD7d-215" value="" style="ellipse;whiteSpace=wrap;html=1;aspect=fixed;sketch=1;fontFamily=Comic Sans MS;strokeColor=#FF3333;" vertex="1" parent="1">
          <mxGeometry x="825" y="2014.8600000000001" width="10" height="10" as="geometry" />
        </mxCell>
        <mxCell id="3rSdv7cUPAvAJedNGD7d-216" value="" style="endArrow=classic;html=1;rounded=0;sketch=1;fontFamily=Comic Sans MS;fontSize=20;strokeColor=#FF3333;entryX=0.5;entryY=1;entryDx=0;entryDy=0;" edge="1" parent="1" source="3rSdv7cUPAvAJedNGD7d-215">
          <mxGeometry width="50" height="50" relative="1" as="geometry">
            <mxPoint x="980" y="2059.86" as="sourcePoint" />
            <mxPoint x="830" y="1959.8600000000001" as="targetPoint" />
          </mxGeometry>
        </mxCell>
        <mxCell id="3rSdv7cUPAvAJedNGD7d-217" value="&lt;font color=&quot;#ff3333&quot;&gt;last&lt;/font&gt;" style="rounded=0;whiteSpace=wrap;html=1;sketch=1;fontFamily=Comic Sans MS;strokeColor=#FF3333;verticalAlign=bottom;" vertex="1" parent="1">
          <mxGeometry x="311" y="1999.8600000000001" width="40" height="40" as="geometry" />
        </mxCell>
        <mxCell id="3rSdv7cUPAvAJedNGD7d-218" value="" style="ellipse;whiteSpace=wrap;html=1;aspect=fixed;sketch=1;fontFamily=Comic Sans MS;strokeColor=#FF3333;" vertex="1" parent="1">
          <mxGeometry x="326" y="2014.8600000000001" width="10" height="10" as="geometry" />
        </mxCell>
        <mxCell id="3rSdv7cUPAvAJedNGD7d-219" value="" style="endArrow=classic;html=1;rounded=0;sketch=1;fontFamily=Comic Sans MS;fontSize=20;strokeColor=#FF3333;entryX=0.5;entryY=1;entryDx=0;entryDy=0;" edge="1" parent="1" source="3rSdv7cUPAvAJedNGD7d-218">
          <mxGeometry width="50" height="50" relative="1" as="geometry">
            <mxPoint x="481" y="2059.86" as="sourcePoint" />
            <mxPoint x="331.00000000000045" y="1959.8600000000001" as="targetPoint" />
          </mxGeometry>
        </mxCell>
        <mxCell id="3rSdv7cUPAvAJedNGD7d-220" value="&lt;font color=&quot;#ff3333&quot;&gt;curr&lt;/font&gt;" style="rounded=0;whiteSpace=wrap;html=1;sketch=1;fontFamily=Comic Sans MS;strokeColor=#FF3333;verticalAlign=bottom;" vertex="1" parent="1">
          <mxGeometry x="860" y="1999.8600000000001" width="40" height="40" as="geometry" />
        </mxCell>
        <mxCell id="3rSdv7cUPAvAJedNGD7d-221" value="" style="ellipse;whiteSpace=wrap;html=1;aspect=fixed;sketch=1;fontFamily=Comic Sans MS;strokeColor=#FF3333;" vertex="1" parent="1">
          <mxGeometry x="875" y="2014.8600000000001" width="10" height="10" as="geometry" />
        </mxCell>
        <mxCell id="3rSdv7cUPAvAJedNGD7d-222" value="" style="endArrow=classic;html=1;rounded=0;sketch=1;fontFamily=Comic Sans MS;fontSize=20;strokeColor=#FF3333;entryX=0.75;entryY=1;entryDx=0;entryDy=0;edgeStyle=orthogonalEdgeStyle;" edge="1" parent="1" source="3rSdv7cUPAvAJedNGD7d-221" target="3rSdv7cUPAvAJedNGD7d-80">
          <mxGeometry width="50" height="50" relative="1" as="geometry">
            <mxPoint x="1030" y="2059.86" as="sourcePoint" />
            <mxPoint x="880.0000000000005" y="1959.8600000000001" as="targetPoint" />
            <Array as="points">
              <mxPoint x="880" y="1990" />
              <mxPoint x="830" y="1990" />
            </Array>
          </mxGeometry>
        </mxCell>
        <mxCell id="3rSdv7cUPAvAJedNGD7d-224" value="&lt;font color=&quot;#000000&quot; style=&quot;font-size: 12px;&quot;&gt;if (curr == next) done!&lt;br&gt;&lt;/font&gt;" style="shape=document;whiteSpace=wrap;html=1;boundedLbl=1;sketch=1;fontFamily=Comic Sans MS;fontSize=20;fontColor=#FF3333;strokeColor=#000000;" vertex="1" parent="1">
          <mxGeometry x="720" y="2080" width="230" height="120" as="geometry" />
        </mxCell>
      </root>
    </mxGraphModel>
  </diagram>
</mxfile>
